<svg xmlns="http://www.w3.org/2000/svg" viewBox="0 0 151.89 17.88"><defs><style>.cls-1{fill:#fff;}</style></defs><title>hamidou-sow-logo</title><g id="Calque_2" data-name="Calque 2"><g id="Calque_1-2" data-name="Calque 1"><polygon points="9.14 17.38 9.14 11.09 4.61 11.09 4.61 17.38 0.5 17.38 0.5 0.5 4.61 0.5 4.61 6.79 4.81 6.79 4.81 4.68 8.94 4.68 8.94 6.79 9.14 6.79 9.14 0.5 13.27 0.5 13.27 17.38 9.14 17.38"/><path class="cls-1" d="M12.77,1V16.88H9.64V10.59H4.11v6.29H1V1H4.11V7.29h1.2V5.18H8.44V7.29h1.2V1h3.13m1-1H8.64V4.18H5.11V0H0V17.88H5.11V11.59H8.64v6.29h5.13V0Z"/><path d="M25.58,17.38V15.3h-.22v2.08H16.92V15.3H14.77V6.79h2.15V4.68h8.44V6.79h2.18v6.26h2.18v4.33Zm-2.17-4.33V9H18.88v4Z"/><path class="cls-1" d="M24.86,5.18V7.29H27v6.26h2.18v3.33H26.08V14.8H24.86v2.08H17.42V14.8H15.27V7.29h2.15V5.18h7.44m-6.48,8.37h5.53v-5H18.38v5m7.48-9.37H16.42V6.29H14.27V15.8h2.15v2.08h13.8V12.55H28V6.29H25.86V4.18ZM19.38,9.51h3.53v3H19.38v-3Z"/><polygon points="43.96 17.38 43.96 9.01 41.56 9.01 41.56 17.38 37.45 17.38 37.45 9.01 35.08 9.01 35.08 17.38 30.97 17.38 30.97 4.68 39.41 4.68 39.41 6.79 39.61 6.79 39.61 4.68 45.92 4.68 45.92 6.79 48.05 6.79 48.05 17.38 43.96 17.38"/><path class="cls-1" d="M45.42,5.18V7.29h2.13v9.59H44.46V8.51h-3.4v8.37H38V8.51H34.58v8.37H31.47V5.18h7.44V7.29h1.2V5.18h5.31m1-1h-16v13.7h5.11V9.51H37v8.37h5.11V9.51h1.4v8.37h5.09V6.29H46.42V4.18Z"/><rect x="50.03" y="0.5" width="4.11" height="16.88"/><path class="cls-1" d="M53.64,1V4.35H50.53V1h3.11m0,4.18v11.7H50.53V5.18h3.11m1-5.18H49.53V17.88h5.11V0Z"/><path d="M58.28,17.38V15.3H56.12V6.79h2.16V4.68h6.51V.5h4.13V15.3h-2.2v2.08Zm6.48-4.33V9H60.23v4Z"/><path class="cls-1" d="M68.42,1V14.8h-2.2v2.08H58.78V14.8H56.62V7.29h2.16V5.18h6.51V1h3.13M59.73,13.55h5.53v-5H59.73v5M69.42,0H64.29V4.18H57.78V6.29H55.62V15.8h2.16v2.08h9.44V15.8h2.2V0ZM60.73,9.51h3.53v3H60.73v-3Z"/><path d="M72.55,17.38V15.3H70.39V6.79h2.16V4.68H81V6.79h2.18V15.3H81v2.08ZM79,13.05V9H74.5v4Z"/><path class="cls-1" d="M80.48,5.18V7.29h2.18V14.8H80.48v2.08H73.05V14.8H70.89V7.29h2.16V5.18h7.43M74,13.55h5.53v-5H74v5m7.48-9.37H72.05V6.29H69.89V15.8h2.16v2.08h9.43V15.8h2.18V6.29H81.48V4.18ZM75,9.51h3.53v3H75v-3Z"/><polygon points="87.3 17.38 87.3 15.3 85.15 15.3 85.15 4.68 89.26 4.68 89.26 13.05 93.79 13.05 93.79 4.68 97.92 4.68 97.92 15.3 95.74 15.3 95.74 17.38 87.3 17.38"/><path class="cls-1" d="M97.42,5.18V14.8H95.24v2.08H87.8V14.8H85.65V5.18h3.11v8.37h5.53V5.18h3.13m1-1H93.29v8.37H89.76V4.18H84.65V15.8H86.8v2.08h9.44V15.8h2.18V4.18Z"/><path d="M107,17.38V15.3H104.8V11H107V9H104.8V2.6H107V.5h8.44V2.6h2.18V6.93h-2.18V8.85h2.18V15.3h-2.18v2.08Zm6.49-4.33v-2h-4.53v2Zm0-6.26V4.85h-4.53V6.79Z"/><path class="cls-1" d="M114.89,1V3.1h2.18V6.43h-3.13V4.35h-5.53V7.29h6.48V9.35h2.18V14.8h-2.18v2.08h-7.44V14.8H105.3V11.45h3.11v2.1h5.53v-3h-6.49V8.51H105.3V3.1h2.15V1h7.44m1-1h-9.44V2.1H104.3V9.51h2.15v.94H104.3V15.8h2.15v2.08h9.44V15.8h2.18V8.35h-2.18V7.43h2.18V2.1h-2.18V0Zm-6.48,5.35h3.53v.94h-3.53V5.35Zm0,6.24h3.53v1h-3.53v-1Z"/><path d="M121.71,17.38V15.3h-2.15V2.6h2.15V.5h8.44V2.6h2.18V15.3h-2.18v2.08Zm6.48-4.33V4.85h-4.53v8.2Z"/><path class="cls-1" d="M129.65,1V3.1h2.18V14.8h-2.18v2.08h-7.44V14.8h-2.15V3.1h2.15V1h7.44m-6.49,12.55h5.53V4.35h-5.53v9.2M130.65,0h-9.44V2.1h-2.15V15.8h2.15v2.08h9.44V15.8h2.18V2.1h-2.18V0Zm-6.49,5.35h3.53v7.2h-3.53V5.35Z"/><polygon points="145.13 17.38 145.13 15.3 142.95 15.3 142.95 11.09 142.75 11.09 142.75 15.3 140.57 15.3 140.57 17.38 136.47 17.38 136.47 15.3 134.31 15.3 134.31 0.5 138.42 0.5 138.42 13.05 138.62 13.05 138.62 8.85 140.8 8.85 140.8 2.6 144.91 2.6 144.91 8.85 147.08 8.85 147.08 13.05 147.31 13.05 147.31 0.5 151.39 0.5 151.39 15.3 149.26 15.3 149.26 17.38 145.13 17.38"/><path class="cls-1" d="M150.89,1V14.8h-2.13v2.08h-3.13V14.8h-2.18V10.59h-1.2V14.8h-2.18v2.08H137V14.8h-2.16V1h3.11V13.55h1.2V9.35h2.18V3.1h3.11V9.35h2.17v4.2h1.23V1h3.08m1-1h-5.08V8.35h-1.4V2.1H140.3V8.35h-1.38V0h-5.11V15.8H136v2.08h5.1V15.8h3.56v2.08h5.13V15.8h2.13V0Z"/></g></g></svg>