<svg xmlns="http://www.w3.org/2000/svg" viewBox="0 0 1024 1023"><defs><style>.cls-1{fill:#6db345;}.cls-2{fill:#8dbf68;}</style></defs><title>spring-boot</title><g id="Calque_2" data-name="Calque 2"><g id="Calque_1-2" data-name="Calque 1"><path class="cls-1" d="M472,0h77c.71,1.36,2,.86,3.11,1a481.32,481.32,0,0,1,77.8,12.5q141.38,34.75,244,138.14c3.24,3.27,4.34,2.5,6.68-.73a460.22,460.22,0,0,0,49.25-86c.67-1.55.7-3.62,2.84-4.42,19.29,58.86,37.43,118,52.8,177.92,18.67,72.82,33.76,146.26,37.63,221.6,0,.8-.07,1.69.92,2.08v58c-1.58.84-.88,2.35-1,3.56-2.08,24.22-3.74,48.48-7.88,72.48C996,706.88,946.66,802,865.61,879.94c-87.29,83.94-191.93,130.56-312.56,141.36-4.68.42-9.55-.31-14,1.7h-7c-5-1.91-10-1.21-15,0H483c-.5-1.23-1.62-.9-2.55-1-10.27-1-20.56-1.69-30.8-2.94A505,505,0,0,1,281.23,968a493.45,493.45,0,0,1-99.84-66.38l.84-.87c1.23.51,2.46,1,3.68,1.52,17.77,7.66,37.42,3.42,50.15-10.83,12-13.45,13.95-34.65,4.64-50.82a42.41,42.41,0,0,0-46.06-20.47c-29.78,6.31-45.23,41.08-26.08,68.35l-.8.74c-1.43-1.12-3-2.14-4.28-3.38Q27.18,757.57,2.71,572c-.82-6.33-.64-12.82-2.71-19V467c1.41-.66.92-2,1-3.07,4.11-44.46,13.44-87.82,29.21-129.58Q102.34,143.42,284.8,51.6C337,25.42,392.41,9.48,450.45,2.71,457.64,1.87,464.94,1.83,472,0ZM927.37,113.06c-1.66.47-1.81,1.56-2.21,2.37C903.64,158.6,873.24,194.77,836.88,226q-132.45,113.72-307,121c-31.78,1.35-63.57,2.85-95.27,5.85-41.56,3.93-81.8,12.9-119.9,30.33C258.33,409,213.22,447.38,183.9,502.55c-31.81,59.84-40.47,122.91-21.7,188.53,12.37,43.21,36.7,77.68,78.22,98.06a9.29,9.29,0,0,0,6.53,1.12c56.07-11.48,111.86-24.2,167.21-38.76,42-11,83.9-22.46,124.16-38.89,84.21-34.35,157.95-84.6,222.26-148.72,45.18-45,82.91-95.49,109.23-154,3.73-8.29,7.07-16.76,10.59-25.14a7.21,7.21,0,0,1,.22,3.8,419.65,419.65,0,0,1-25.34,80.27c-30.82,71.9-76.12,133.73-131.55,188.43-67.52,66.62-145.84,115.43-236.68,143.78C436.58,816.82,385.82,831.65,335.86,849c-10.77,3.75-21.55,7.49-31.84,12.62a15,15,0,0,0,4.33,0A708.5,708.5,0,0,1,413,855.37c59,.75,117.92,4,176.93,3.67,54.06-.29,107.88-3.28,160.86-15.1C790.87,835,829,821,863.56,798.47,913.15,766.13,946.45,720.7,969,666.76c22.36-53.47,30.72-109.72,31.84-167.24,1.17-60-6-119.35-17.31-178.2C972.31,262.93,956.77,205.65,939,149,935.19,137,931.24,125,927.37,113.06Z"/><path class="cls-2" d="M517,1023c5-1.21,10-1.91,15,0Z"/><path class="cls-1" d="M179.88,900.06c1.07-.73,1.7,0,2.35.69l-.84.87L180,900Z"/><path class="cls-1" d="M168.56,888.5c.3.46.93.93.13,1.41-.13.08-.61-.43-.93-.67Z"/><path class="cls-1" d="M180,900l-.67-.5.68-.13c0,.24-.09.48-.14.71Z"/></g></g></svg>