<svg xmlns="http://www.w3.org/2000/svg" viewBox="0 0 56.88 18.68"><defs><style>{fill:#15181f;}</style></defs><title>hamidousow-logo</title><g id="Calque_2" data-name="Calque 2"><g id="Calque_1-2" data-name="Calque 1"><path class="cls-1" d="M7.8,8.54H6V5.09H2.43V8.54H.6V.14H2.43V3.52H6V.14H7.8Z"/><path class="cls-1" d="M8.65,8.54,11.71.14h2.17l3,8.4h-2L14.3,6.76H11.21l-.58,1.78Zm3-3.22h2.25l-.95-3a3,3,0,0,1-.09-.29,2,2,0,0,1-.05-.32h0c0,.11,0,.22-.06.3s-.05.19-.08.29Z"/><path class="cls-1" d="M27.25,8.54H25.44V3.48c0-.27,0-.55,0-.85l.06-.94h-.05c0,.25-.1.47-.14.65a3.72,3.72,0,0,1-.12.44l-2,5.76H21.7l-2.06-5.7-.11-.41-.15-.74h-.05c0,.39.05.77.06,1.13s0,.69,0,1V8.54H17.75V.14h2.67l1.77,5a3,3,0,0,1,.18.56c.05.18.09.36.13.54h0c.05-.21.11-.41.16-.6l.17-.51,1.78-5h2.6Z"/><path class="cls-1" d="M30.77,8.54H28.94V.14h1.83Z"/><path class="cls-1" d="M32.46,8.54V.14h2.93a4.86,4.86,0,0,1,3.36,1,4,4,0,0,1,1.12,3.08,4.13,4.13,0,0,1-1.23,3.13,4.51,4.51,0,0,1-3.26,1.17Zm1.83-6.91V7.05h1a2.61,2.61,0,0,0,2-.74,2.83,2.83,0,0,0,.71-2,2.6,2.6,0,0,0-.7-1.93,2.72,2.72,0,0,0-2-.7Z"/><path class="cls-1" d="M44.69,8.69a3.86,3.86,0,0,1-2.93-1.18,4.2,4.2,0,0,1-1.14-3.06,4.57,4.57,0,0,1,1.15-3.22A4,4,0,0,1,44.83,0a3.78,3.78,0,0,1,2.9,1.18,4.33,4.33,0,0,1,1.11,3.1,4.44,4.44,0,0,1-1.15,3.2A4,4,0,0,1,44.69,8.69Zm0-1.59a2,2,0,0,0,1.6-.71,3.1,3.1,0,0,0,.59-2,3.31,3.31,0,0,0-.57-2.07,1.88,1.88,0,0,0-1.57-.74,2,2,0,0,0-1.62.76,3.16,3.16,0,0,0-.6,2,3.09,3.09,0,0,0,.6,2A1.91,1.91,0,0,0,44.72,7.1Z"/><path class="cls-1" d="M56.88,4.92A4.06,4.06,0,0,1,56,7.75a3.41,3.41,0,0,1-2.63.94,3.33,3.33,0,0,1-2.55-.92A4,4,0,0,1,50,5V.14h1.84V5a2.41,2.41,0,0,0,.41,1.55,1.45,1.45,0,0,0,1.22.52,1.48,1.48,0,0,0,1.21-.5,2.4,2.4,0,0,0,.4-1.5v-5h1.83Z"/><path class="cls-1" d="M0,17.89l.4-.58a3.84,3.84,0,0,0,1,.51A4.08,4.08,0,0,0,2.57,18a2,2,0,0,0,1.32-.42,1.5,1.5,0,0,0,.52-1.2,1.33,1.33,0,0,0-.42-1,3.76,3.76,0,0,0-1.36-.73,4.8,4.8,0,0,1-1.74-1,1.85,1.85,0,0,1-.56-1.38A2.06,2.06,0,0,1,1,10.62,2.74,2.74,0,0,1,2.91,10a3.83,3.83,0,0,1,1,.13,4.31,4.31,0,0,1,1,.4l-.32.62a3.74,3.74,0,0,0-.86-.34,3.87,3.87,0,0,0-.92-.11,1.84,1.84,0,0,0-1.25.4,1.31,1.31,0,0,0-.48,1.07,1.28,1.28,0,0,0,.43,1A4.54,4.54,0,0,0,3,13.87a4.2,4.2,0,0,1,1.72,1,2,2,0,0,1,.52,1.45A2.27,2.27,0,0,1,4.48,18a2.74,2.74,0,0,1-2,.66,4.32,4.32,0,0,1-1.33-.19A4,4,0,0,1,0,17.89Z"/><path class="cls-1" d="M9.94,18.68A3.64,3.64,0,0,1,7.09,17.5,4.38,4.38,0,0,1,6,14.44a4.61,4.61,0,0,1,1.09-3.23,3.77,3.77,0,0,1,3-1.21,3.57,3.57,0,0,1,2.78,1.17,4.36,4.36,0,0,1,1.05,3.05,4.71,4.71,0,0,1-1.08,3.27A3.71,3.71,0,0,1,9.94,18.68Zm0-.71A3,3,0,0,0,12.26,17a3.9,3.9,0,0,0,.85-2.68,4,4,0,0,0-.83-2.68A2.87,2.87,0,0,0,10,10.71a2.87,2.87,0,0,0-2.28,1,3.85,3.85,0,0,0-.88,2.64A3.89,3.89,0,0,0,7.69,17,2.8,2.8,0,0,0,9.93,18Z"/><path class="cls-1" d="M24.79,10.14l-2.41,8.4h-.82l-1.8-6.23c0-.15-.07-.29-.1-.43a3,3,0,0,1-.05-.39h0a2.83,2.83,0,0,1-.06.37,2.83,2.83,0,0,1-.11.44l-1.87,6.24h-.8l-2.48-8.4h.86L17,16.73c0,.14.07.28.09.41a2.71,2.71,0,0,1,.06.38h0a3.34,3.34,0,0,1,.07-.33,4.21,4.21,0,0,1,.13-.46l2-6.59H20l1.84,6.61c0,.13.07.26.1.39a2.5,2.5,0,0,1,.06.38h0c0-.08,0-.17,0-.27s.05-.21.08-.32L24,10.14Z"/></g></g></svg>