<svg xmlns="http://www.w3.org/2000/svg" xmlns:xlink="http://www.w3.org/1999/xlink" width="185" height="184" viewBox="0 0 185 184">
  <defs>
    <clipPath id="clip-path">
      <rect id="Rectangle_19" data-name="Rectangle 19" width="185" height="184" transform="translate(0 0.216)" fill="#ddd" stroke="#707070" stroke-width="1"/>
    </clipPath>
  </defs>
  <g id="illustrator-brands" transform="translate(0 -0.216)" clip-path="url(#clip-path)">
    <g id="Calque_2" data-name="Calque 2" transform="translate(0.015 0)">
      <g id="Calque_1" data-name="Calque 1" transform="translate(0 0)">
        <path id="Tracé_30" data-name="Tracé 30" d="M172.827-.009H11.787A11.1,11.1,0,0,0,0,8.489v166.66a12.2,12.2,0,0,0,6.442,8.223l2.878,1.234H175.294a11.924,11.924,0,0,0,7.675-5.619,16.583,16.583,0,0,0,1.645-6.3c0-53.589,0-107.315,0-160.9A11.239,11.239,0,0,0,172.827-.009ZM118.005,141.159H96.761s-.822-.959-.822-1.508c-2.056-6.99-4.249-13.706-6.168-20.832,0-1.371-.959-1.782-2.33-1.782H61.675C60.03,123.2,58.249,129.372,56.6,135.4c0,1.508-.822,3.152-1.371,4.66s-.822,1.1-1.234,1.1H33.579c9.046-31.523,18.5-62.635,28.1-93.883H87.99a1.782,1.782,0,0,1,2.056,1.371q13.706,45.914,28.508,91.964Zm32.756-2.056c0,1.782,0,2.193-2.056,2.056H129.929V72.631h20.832ZM139.934,64.544A10.279,10.279,0,0,1,128.97,53.991,10.416,10.416,0,0,1,140.208,43.3a10.69,10.69,0,0,1,11.1,10.964,10.416,10.416,0,0,1-11.1,10.279Z" transform="translate(0 0.053)" fill="#ddd"/>
        <path id="Tracé_31" data-name="Tracé 31" d="M98.523,113.979H78.1c3.289-12.746,6.579-25.218,9.868-37.69C91.4,88.761,95.371,101.233,98.523,113.979Z" transform="translate(-13.137 -12.788)" fill="#ddd"/>
      </g>
    </g>
  </g>
</svg>
