<svg id="photoshop-brands" xmlns="http://www.w3.org/2000/svg" width="184.658" height="184.564" viewBox="0 0 184.658 184.564">
  <g id="Calque_1" data-name="Calque 1" transform="translate(0 0)">
    <path id="Tracé_26" data-name="Tracé 26" d="M174.784,0H9.747A11.959,11.959,0,0,0,1.136,6.4C.718,7.355.359,8.371,0,9.388V175.143a34.2,34.2,0,0,0,3.707,5.98,10.524,10.524,0,0,0,8.252,3.349h159.6a11.541,11.541,0,0,0,12.916-12.856V13.873A11.959,11.959,0,0,0,174.784,0ZM101.115,80.067a31.991,31.991,0,0,1-3.588,6.757A33.606,33.606,0,0,1,78.811,99.441a67.151,67.151,0,0,1-24.636,2.212H53.1v35.878H30.376V37.193c5.023-.478,10.046-1.316,15.069-1.316,8.371,0,16.324-.478,24.457,0A38.27,38.27,0,0,1,91.01,42.635a29.061,29.061,0,0,1,11.959,25.114,37.372,37.372,0,0,1-1.316,9.986v.538A2.424,2.424,0,0,1,101.115,80.067ZM147.1,135.5a48.435,48.435,0,0,1-24.337,3.468A50.228,50.228,0,0,1,105.9,134.84c-1.136-.538-1.495-.957-1.136-2.272,1.316-4.9,2.452-9.747,3.648-14.71,2.691,1.017,5.142,2.212,7.773,3.05a32.649,32.649,0,0,0,15.906,1.973c4.006-.658,5.98-2.93,5.98-6.4a5.083,5.083,0,0,0-2.571-4.246,53.337,53.337,0,0,0-6.518-2.99,66.316,66.316,0,0,1-13.454-6.458A19.852,19.852,0,0,1,106.916,81.2a5.263,5.263,0,0,1,.3-.9h0v-.6a1.794,1.794,0,0,1,0-.6,14.3,14.3,0,0,1,.9-2.212,10.224,10.224,0,0,1,.777-1.375,9.387,9.387,0,0,1,1.2-1.794,5.98,5.98,0,0,1,.9-1.2,16.8,16.8,0,0,1,1.734-1.854c.6-.6,1.256-1.136,1.913-1.674a31.931,31.931,0,0,1,16.683-5.98,50.648,50.648,0,0,1,25.294,3.947l-3.528,14.949a92.148,92.148,0,0,0-10.4-3.05,37.014,37.014,0,0,0-9.268,0,6.4,6.4,0,0,0-3.468,1.734,4.664,4.664,0,0,0,0,7.235A24.337,24.337,0,0,0,135.5,91.01c4.305,1.913,8.73,3.408,12.916,5.561a20.331,20.331,0,0,1,11.481,15.188,23.918,23.918,0,0,1,.359,4.066A21.706,21.706,0,0,1,147.1,135.5Z" transform="translate(0 0)" fill="#ddd"/>
    <path id="Tracé_27" data-name="Tracé 27" d="M91.211,78.731A15.308,15.308,0,0,1,78.594,93.919a41.08,41.08,0,0,1-14.829,0V66.413c0-1.674.3-2.452,2.093-2.631a41.319,41.319,0,0,1,14.351,0A13.873,13.873,0,0,1,91.211,78.731Z" transform="translate(-10.726 -10.623)" fill="#ddd"/>
  </g>
</svg>
