<svg xmlns="http://www.w3.org/2000/svg" viewBox="0 0 2418.19 2493.11"><defs><style>.cls-1{fill:#ddd;}</style></defs><title>postgreSql</title><g id="Calque_2" data-name="Calque 2"><g id="Calque_1-2" data-name="Calque 1"><path class="cls-1" d="M2411.79,1493.43c-14.53-44-52.61-74.68-101.84-82-23.22-3.47-49.81-2-81.27,4.5-54.85,11.31-95.53,15.62-125.23,16.45,112.08-189.23,203.22-405,255.69-608.16,84.84-328.46,39.5-478.09-13.48-545.77C2205.46,99.26,2000.91,3,1754.13.07c-131.64-1.61-247.21,24.38-307.5,43.07-56.13-9.9-116.48-15.43-179.81-16.45-118.71-1.9-223.59,24-313.22,77.17C904,87.08,824.36,63.43,732.4,48.33c-216.29-35.5-390.61-7.84-518.12,82.24C59.89,239.63-11.69,429.12,1.55,693.77c4.2,84,51.21,339.68,125.22,582.14,42.53,139.36,87.88,255.09,134.8,344,66.54,126.08,137.73,200.32,217.66,227C524,1861.82,605.42,1872.27,691,1801c10.85,13.14,25.33,26.2,44.54,38.33,24.4,15.39,54.24,28,84,35.41,107.39,26.85,208,20.13,293.79-17.49.53,15.26.94,29.84,1.28,42.43.57,20.43,1.13,40.45,1.88,59.18,5.09,126.64,13.7,225.1,39.23,294,1.4,3.79,3.29,9.56,5.28,15.69,12.73,39,34,104.27,88.21,155.39,56.1,53,124,69.2,186.11,69.2a417.92,417.92,0,0,0,87-9.68c93-19.93,198.59-50.29,275-159.06,72.22-102.84,107.33-257.72,113.69-501.75q1.23-10.36,2.31-19.77l1.51-12.9,17,1.5,4.38.29c94.71,4.32,210.51-15.77,281.63-48.8C2274.11,1716.86,2454.19,1621.78,2411.79,1493.43Zm-225.2,182.73c-56.41,26.18-146.35,42.75-224.3,42.75-37.37,0-71.94-3.83-98.8-12.21-12.72,117-39.77,335-55.54,426.38-29.46,170.88-105.61,248.39-281,286-29.86,6.4-57,9.27-81.65,9.27-168,0-221.23-133-243-187.42-26.59-66.48-35.82-284.68-34-506.12-60.62,54.82-136.48,83.15-222.67,83.15-35.44,0-72.61-4.76-111.18-14.42-11.07-2.77-108.23-28.85-106.94-91,1.19-56.85,82.29-73.56,112.83-79.87,107.34-22.1,114.28-30.91,147.63-73.25q11.91-15.24,24.34-30.06c-.12-1.25-.24-2.51-.33-3.77a309.17,309.17,0,0,1-138-37.12q-99,105.75-191.85,217.08c-50.7,61-99.44,78.88-139.19,78.88a137.65,137.65,0,0,1-43.68-7.23c-109-36.35-212.53-213-307.81-525.17C119.1,1014.89,73.24,767.27,69.21,686.77,57.26,447.52,119,278.16,252.72,183.41,364.79,104,521.84,79.91,719.47,111.73c114.32,18.41,207.79,50.5,244,64,83.27-56.79,183.85-84.64,300.2-82.76a775.73,775.73,0,0,1,175.19,22.5c25.39-11.16,156.34-50.82,311.33-49.08,225.46,2.39,411.71,89.37,538.61,251.52,31.47,40.22,46.73,106.07,45.34,195.67-1.26,81.64-16.64,181.8-44.5,289.65-58.81,227.68-167.83,471.71-300.34,673.58,20,14.76,81.1,39.13,251.58,4,57.42-11.86,92-1.41,102.72,31.06h0C2364.3,1574.53,2250,1646.73,2186.59,1676.16Z"/><path class="cls-1" d="M1080.27,1289.66c40.11-89.13,90-200,32.5-466.14-11.12-51.4-37.86-81.28-81.74-91.32-96.16-22-231,50.21-260.11,76,.26,5.82.7,13.21,1.21,21.64,3.57,60.22,10.2,172.31-7.79,301-12.85,91.92,15.22,181.61,77,246.09h0c48.6,50.72,112.5,78.78,178.2,79,7.54-31,19.72-63.61,32.8-98.7l5.17-13.88C1064.19,1325.37,1072,1308,1080.27,1289.66Zm-60.7-438.39a56.5,56.5,0,0,1-8-.55c-18.42-2.55-37-14.16-49.79-31.05-4.5-6-11.83-17.54-10.37-28C952,787.72,954,782,960.55,777c11.62-8.81,34.6-12.07,60-8.54h0c31.14,4.33,63.25,19.07,60.17,41.19C1078.24,827.35,1050.3,851.27,1019.57,851.27Z"/><path class="cls-1" d="M1915.56,819.94c5-32.72,9.79-64.07,10.37-98.61C1788.1,704.22,1733.2,736,1711.56,766.91c-72.64,103.83,69.25,358.29,129.84,467,15.58,27.91,26.83,48.08,32,60.64a346.11,346.11,0,0,0,18.46,38c41.67-88.69,30.91-178.57,20.42-265.87-5.19-43.22-10.56-87.91-9.17-130.9C1904.53,891.53,1910.14,855.14,1915.56,819.94Zm-69.42-20.21c-6.72,7-20.87,19.29-40.15,22a52.74,52.74,0,0,1-7.38.52c-28.88,0-53.29-23.07-55.18-36.58-2.37-17.38,26-30.58,55.22-34.65s60.13.87,62.55,18.21C1862.29,777,1856.36,789,1846.14,799.73Z"/><path class="cls-1" d="M1131.25,1545.65c-18.94-7.86-29.38-12.2-52.21,13.37h0c-15.33,17.12-26.4,31.18-36.16,43.58-42.59,54.08-62.1,72.43-188.38,98.42-26.1,5.38-41.15,10.79-49.6,14.77,10.12,6.9,27.37,15.23,46.56,20,93.1,23.3,222.75,24.9,311.72-99.67,10.54-14.77,7.32-33.75,4.45-43.75C1161.55,1571.23,1146.6,1552,1131.25,1545.65Z"/><path class="cls-1" d="M1953.15,1537a120.68,120.68,0,0,1-9.77-7.16c-4.77,1.67-9.71,3.06-14.78,4.48-32.24,9.05-62.7,17.6-58.72,99.45,8.48,6.92,44.54,18.17,115.36,14.86,64.13-3,131.63-17.07,172-35.79h0c46.9-21.78,80-46,99.32-64.12l-1.57.31C2111.61,1578.65,2010.08,1574.6,1953.15,1537Z"/><path class="cls-1" d="M791,1425.23c-76.67-80-111.57-190.81-95.74-304,17-121.83,10.66-229.42,7.24-287.23-.93-15.78-1.61-27.26-1.6-35.36-.49-21-5.21-364.69,194-565.84,1.73-1.76,3.54-3.37,5.29-5.09-121.38-39.55-423.46-117.53-607.19,12.76-112.89,80.06-164.72,229.05-154,442.84,3.39,67.6,46.15,308.66,119.33,548.39,84.56,277.06,180.48,451.77,263.15,479.35,12.68,4.22,51.26,17.1,107.13-50.07h0c79-95,153.12-175.8,187.25-212.35Q802.79,1437.55,791,1425.23Z"/><path class="cls-1" d="M1826.4,358.79c111.16,129.4,165.7,272.36,170.2,320.13a55,55,0,0,1-1.16,18.73c1.76,49.82-4.63,92.08-10.91,132.92-5.11,33.14-10.39,67.41-11.66,107.37-1.23,37.71,3.6,77.84,8.71,120.34,12.44,103.55,26.42,220.35-45.06,338.39l3.5,4.38q4.21,5.27,8.39,10.58C2225,976.34,2320.57,471.78,2233.8,360.89c-113.13-144.57-272.93-220.14-474.93-224.6-79.74-1.77-151,8.29-203,19.09C1676.91,208.8,1765.59,288,1826.4,358.79Z"/><path class="cls-1" d="M1885.53,1444.65c-22.36-27.93-53-66.2-76.63-123.53-3.62-8.77-15.11-29.4-28.44-53.27-72.63-130.26-223.76-401.29-126.07-540.94,44.9-64.2,133.48-89.9,263.72-76.66-17.32-51.45-60.71-146.85-140.86-241.55-93-109.9-257.79-241.78-514.77-246-130.43-2.16-237.47,37.87-317.85,118.92C817,410.4,782.85,613.9,773.81,722.79c6-3.31,12.31-6.72,19.27-10.24,32.37-16.41,97.25-45,168.18-52.36,118.3-12.27,196.34,40.51,219.71,148.59,62.39,288.54,4.9,416.26-37.07,509.51-7.77,17.27-15.11,33.59-21,49.33l-5.19,14c-12.4,33.21-23.83,63.88-30.42,91,30.91-7.9,56.63,2.75,70.64,8.55,35.27,14.62,64.67,49.88,76.73,92a145.76,145.76,0,0,1,4.32,20.47,35.05,35.05,0,0,1,1.51,11.08c-8.12,289.71,3.32,552.06,26.59,610.23,36,90.12,90.74,168.94,245.24,135.84h0c149-32,202-85.6,226.84-229.62,18.81-109,55.85-417.56,61-483.46-6.45-131.34,64.4-157.62,103.85-169C1899,1461.52,1892.38,1453.21,1885.53,1444.65Z"/></g></g></svg>