<svg xmlns="http://www.w3.org/2000/svg" viewBox="0 0 22.68 18.06"><defs><style>.cls-1{fill:#ddd;fill-rule:evenodd;}</style></defs><title>boostrap</title><g id="Calque_2" data-name="Calque 2"><g id="Calque_1-2" data-name="Calque 1"><path class="cls-1" d="M4.71,0A2.26,2.26,0,0,0,2.5,2.36a12.62,12.62,0,0,1-.4,4c-.38,1.24-1,2-2.1,2.14V9.61c1.07.1,1.72.89,2.1,2.14a12.56,12.56,0,0,1,.4,3.95,2.26,2.26,0,0,0,2.21,2.36H18a2.26,2.26,0,0,0,2.21-2.36,12.85,12.85,0,0,1,.39-3.95c.39-1.25,1-2,2.11-2.14V8.46c-1.07-.1-1.72-.89-2.11-2.14a12.91,12.91,0,0,1-.39-4A2.26,2.26,0,0,0,18,0ZM15.37,11.12c0,1.69-1.26,2.72-3.35,2.72H8.46a.39.39,0,0,1-.39-.39h0V4.61a.38.38,0,0,1,.39-.38H12c1.74,0,2.89.94,2.89,2.4a2.15,2.15,0,0,1-1.75,2.09v0a2.33,2.33,0,0,1,2.23,2.35ZM11.63,5.45h-2V8.32h1.71c1.32,0,2-.54,2-1.49s-.62-1.38-1.73-1.38Zm-2,4v3.16h2.11c1.37,0,2.1-.55,2.1-1.59s-.75-1.57-2.19-1.57Z"/></g></g></svg>