<svg xmlns="http://www.w3.org/2000/svg" xmlns:xlink="http://www.w3.org/1999/xlink" width="185" height="184" viewBox="0 0 185 184">
  <defs>
    <clipPath id="clip-path">
      <rect id="Rectangle_18" data-name="Rectangle 18" width="185" height="184" transform="translate(-0.342 0.216)" fill="#ddd" stroke="#707070" stroke-width="1"/>
    </clipPath>
  </defs>
  <g id="css3-brands" transform="translate(0.342 -0.216)" clip-path="url(#clip-path)">
    <path id="css3-alt-brands" d="M0,15.857,14.385,179l64.754,21.516L143.893,179,158.279,15.857ZM129.055,48.832l-1.978,19.5L79.552,88.649l-.124.041h45.959l-5.276,60.426-40.476,11.83L38.91,148.91l-2.638-30.46H56.428l1.319,15.787,21.681,5.482,22.546-6.348L103.5,107.98l-68.546-.206v-.041l-.082.041L33.387,88.69,79.593,69.441l2.679-1.113H31.615l-2.391-19.5Z" transform="translate(13.19 -15.857)" fill="#ddd"/>
  </g>
</svg>
