<svg xmlns="http://www.w3.org/2000/svg" viewBox="0 0 8.71 8.72"><defs><style>.cls-1{fill:#5fb77b;}</style></defs><title>favion</title><g id="Calque_2" data-name="Calque 2"><g id="Calque_1-2" data-name="Calque 1"><path class="cls-1" d="M2.13,8.42a3.69,3.69,0,0,1-1.66-.9A1.82,1.82,0,0,1,0,6.76v2H2.2V8.44ZM1.35,2.17a1.23,1.23,0,0,0,.76,1.06l.09,0V1A1.31,1.31,0,0,0,1.35,2.17Zm3,2.45a12.12,12.12,0,0,1-2.81-.81A1.85,1.85,0,0,1,.3,2.18,1.82,1.82,0,0,1,1.47.59,4,4,0,0,1,2.2.29V0H0V6.19H1a1.59,1.59,0,0,0,1,1.42l.27.12V5H5.92C5.5,4.86,5,4.74,4.37,4.62ZM7,5.41a4.13,4.13,0,0,0-.51-.24V7.84a1.94,1.94,0,0,0,.36-.15,1.31,1.31,0,0,0,.88-1.16A1.24,1.24,0,0,0,7,5.41ZM6.8,1.12A1.11,1.11,0,0,0,6.51,1V3.53H2.84A13.6,13.6,0,0,0,4.54,4a15.19,15.19,0,0,1,2.53.65,3.54,3.54,0,0,1,1.3.81A1.68,1.68,0,0,1,8.71,6V2.53h-1A1.59,1.59,0,0,0,6.8,1.12ZM6.51,0V.26l.17,0a3.45,3.45,0,0,1,1.51.91A1.89,1.89,0,0,1,8.71,2.3V0ZM7.63,8.13a4.48,4.48,0,0,1-1.12.4v.19h2.2V7.07A2.1,2.1,0,0,1,7.63,8.13Z"/></g></g></svg>