<svg xmlns="http://www.w3.org/2000/svg" viewBox="0 0 14.17 14.17"><defs><style>.cls-1{fill:#ddd;}</style></defs><title>figma_1</title><g id="Calque_2" data-name="Calque 2"><g id="Calque_1-2" data-name="Calque 1"><path class="cls-1" d="M8.47.14C8.2.08,7.92.06,7.65,0L7.53,0H6.64c-.25,0-.51.06-.76.11A7,7,0,0,0,1.82,2.35,7,7,0,0,0,0,6.37l0,.27v.89c0,.25.06.51.11.76a6.93,6.93,0,0,0,2.58,4.35,6.86,6.86,0,0,0,4.72,1.52A7.08,7.08,0,0,0,8.47.14Zm1.82,8A1.87,1.87,0,0,1,8.94,9a2,2,0,0,1-1.55-.48v.17c0,.53,0,1.07,0,1.6a1.91,1.91,0,0,1-1.72,1.87,1.88,1.88,0,0,1-2-1.41,1.81,1.81,0,0,1,.66-2l.1-.08v0a1.9,1.9,0,0,1,0-3.15l-.13-.1A1.88,1.88,0,0,1,5.45,2.05H8.72a1.87,1.87,0,0,1,1.77,1.28,1.9,1.9,0,0,1-.63,2.09l-.11.09A1.91,1.91,0,0,1,10.29,8.11Z"/><path class="cls-1" d="M5.25,5.17c.47,0,.94,0,1.41,0h.11V2.68c-.5,0-1,0-1.48,0a1.25,1.25,0,0,0,0,2.48Z"/><path class="cls-1" d="M8.89,2.69c-.49,0-1,0-1.49,0V5.2H8.57a2.23,2.23,0,0,0,.37,0A1.27,1.27,0,0,0,10,3.9,1.23,1.23,0,0,0,8.89,2.69Z"/><path class="cls-1" d="M5.31,8.33c.33,0,.68,0,1,0h.44V5.82c-.47,0-.94,0-1.4,0A1.23,1.23,0,0,0,4.21,7.05,1.22,1.22,0,0,0,5.31,8.33Z"/><path class="cls-1" d="M5.48,9a1.65,1.65,0,0,0-.31,0,1.27,1.27,0,1,0,1.55,1.56,4,4,0,0,0,.06-.77c0-.27,0-.54,0-.82H5.48Z"/><path class="cls-1" d="M8.68,5.82A1.27,1.27,0,1,0,10,7.09,1.28,1.28,0,0,0,8.68,5.82Z"/></g></g></svg>