<svg id="Calque_1" data-name="Calque 1" xmlns="http://www.w3.org/2000/svg" viewBox="0 0 272.97 114.01"><defs><style>.cls-1{fill:#ddd;}</style></defs><title>Git-logo2</title><path class="cls-1" d="M163.59,38.81c-6,0-10.44,2.93-10.44,10,0,5.33,2.94,9,10.12,9,6.09,0,10.22-3.59,10.22-9.25,0-6.42-3.7-9.79-9.9-9.79Zm-12,49.94c-1.42,1.73-2.83,3.58-2.83,5.76,0,4.35,5.55,5.66,13.16,5.66,6.31,0,14.91-.44,14.91-6.31,0-3.49-4.14-3.7-9.36-4l-15.88-1.08Zm32.2-49.61a17.2,17.2,0,0,1,4,11c0,12.08-9.47,19.15-23.17,19.15a34.29,34.29,0,0,1-8.6-1l-3.59,5.77,10.66.65c18.82,1.2,29.91,1.74,29.91,16.21,0,12.51-11,19.58-29.91,19.58-19.69,0-27.2-5-27.2-13.6,0-4.9,2.18-7.5,6-11.1a7.25,7.25,0,0,1-4.79-7.17c0-2.4,1.2-4.57,3.16-6.64s4.13-4.14,6.74-6.53c-5.33-2.61-9.36-8.27-9.36-16.32C137.69,36.63,146,28,162.6,28a37.27,37.27,0,0,1,10,1.09h21.21v9.24l-10,.77" transform="translate(0 0)"/><path class="cls-1" d="M213,19.37c-6.2,0-9.79-3.6-9.79-9.8S206.78,0,213,0s9.9,3.37,9.9,9.57S219.29,19.37,213,19.37Zm-14,65.37V76.15l5.55-.76c1.53-.22,1.74-.54,1.74-2.18v-32c0-1.19-.32-2-1.41-2.28l-5.88-2.07,1.2-8.81h22.52V73.21c0,1.75.11,2,1.74,2.18l5.55.76v8.59h-31" transform="translate(0 0)"/><path class="cls-1" d="M273,80.53a43.55,43.55,0,0,1-17.74,4.35c-12.94,0-17.83-5.22-17.83-17.52V38.86c0-.65,0-1.09-.88-1.09h-7.61V28.09c9.57-1.09,13.38-5.88,14.58-17.74h10.33V25.81c0,.76,0,1.08.87,1.08H270V37.77H253.82v26c0,6.42,1.53,8.92,7.4,8.92A25.87,25.87,0,0,0,270,71L273,80.53" transform="translate(0 0)"/><path class="cls-1" d="M111.78,52,62,2.24a7.32,7.32,0,0,0-10.37,0L41.33,12.57l13.1,13.1a8.72,8.72,0,0,1,11,11.11L78.1,49.41a8.71,8.71,0,1,1-5.23,4.92L61.09,42.55v31a8.91,8.91,0,0,1,2.31,1.65,8.75,8.75,0,1,1-9.49-1.9V42a8.75,8.75,0,0,1-4.74-11.45L36.26,17.64,2.15,51.75a7.33,7.33,0,0,0,0,10.38l49.74,49.73a7.33,7.33,0,0,0,10.38,0l49.51-49.5a7.35,7.35,0,0,0,0-10.38" transform="translate(0 0)"/></svg>