<svg xmlns="http://www.w3.org/2000/svg" xmlns:xlink="http://www.w3.org/1999/xlink" width="185" height="184" viewBox="0 0 185 184">
  <defs>
    <clipPath id="clip-path">
      <rect id="Rectangle_16" data-name="Rectangle 16" width="185" height="184" transform="translate(0.086 0.487)" fill="#ddd" stroke="#707070" stroke-width="1"/>
    </clipPath>
  </defs>
  <g id="javascript-brands" transform="translate(-0.086 -0.487)" clip-path="url(#clip-path)">
    <path id="js-brands" d="M0,15.857V200.516H184.658V15.857ZM100.49,159.874c0,17.971-10.552,26.174-25.926,26.174-13.891,0-21.928-7.172-26.05-15.869l14.138-8.532c2.72,4.823,5.194,8.9,11.17,8.9,5.688,0,9.315-2.226,9.315-10.923V100.643H100.49v59.231Zm41.054,26.174c-16.116,0-26.545-7.667-31.615-17.724l14.138-8.161c3.71,6.059,8.573,10.552,17.106,10.552,7.172,0,11.788-3.586,11.788-8.573,0-5.935-4.7-8.038-12.654-11.541l-4.328-1.855c-12.53-5.317-20.815-12.036-20.815-26.174,0-13.025,9.934-22.917,25.391-22.917,11.047,0,18.96,3.833,24.649,13.891l-13.52,8.656c-2.968-5.317-6.183-7.419-11.17-7.419-5.07,0-8.285,3.215-8.285,7.419,0,5.194,3.215,7.3,10.676,10.552l4.328,1.855c14.756,6.306,23.041,12.778,23.041,27.287,0,15.581-12.283,24.154-28.729,24.154Z" transform="translate(0 -15.857)" fill="#ddd"/>
  </g>
</svg>
