<svg id="java-logo" xmlns="http://www.w3.org/2000/svg" viewBox="0 0 55 94"><defs><style>.cls-1{fill:#ddd;}</style></defs><title>java-logo</title><path class="cls-1" d="M18.93,50.22S16.69,51.59,20.49,52a32.06,32.06,0,0,0,12.11-.49,18.16,18.16,0,0,0,3.23,1.56C24.4,57.94,10,52.76,18.93,50.22Zm-1.46-6.35S15,45.73,18.83,46.12a46.35,46.35,0,0,0,15.63-.78,5.88,5.88,0,0,0,2.35,1.46C23,50.91,7.6,47.19,17.47,43.87ZM44.42,55s1.66,1.36-1.85,2.44C36,59.4,15.12,60,9.26,57.45c-2-.88,1.86-2.15,3.13-2.35a9.82,9.82,0,0,1,1.95-.29C12.09,53.25-.6,58,7.89,59.41,31.24,63.22,50.48,57.75,44.42,55ZM20,37.23S9.36,39.77,16.2,40.65a85.09,85.09,0,0,0,14.06-.1c4.4-.39,8.8-1.17,8.8-1.17a24,24,0,0,0-2.64,1.36c-10.85,2.84-31.65,1.57-25.69-1.36A20.31,20.31,0,0,1,20,37.23Zm19,10.65C50,42.21,44.91,36.74,41.39,37.43a5.73,5.73,0,0,0-1.27.39,1.68,1.68,0,0,1,1-.78c6.94-2.45,12.41,7.32-2.24,11.13a1.54,1.54,0,0,0,.19-.29Zm-18,15.43c10.55.68,26.66-.39,27.05-5.38,0,0-.78,2-8.69,3.42a87.72,87.72,0,0,1-26.66.39s1.37,1.17,8.3,1.56Z"/><path class="cls-1" d="M32.4,5s6.06,6.15-5.76,15.43c-9.48,7.52-2.15,11.82,0,16.7-5.57-5-9.57-9.38-6.84-13.48C23.82,17.6,34.85,14.67,32.4,5ZM29.28,33c2.83,3.22-.78,6.15-.78,6.15s7.22-3.71,3.9-8.3c-3-4.39-5.37-6.54,7.33-13.87,0,0-20,5-10.45,16Z"/><path class="cls-1" d="M24.24,84.21V74.64c0-2.44-1.37-4.1-4.79-4.1a13.38,13.38,0,0,0-5.08,1.08l.49,1.76a11.54,11.54,0,0,1,3.9-.78c1.86,0,2.74.78,2.74,2.34v1.27h-1c-4.69,0-6.83,1.76-6.83,4.6,0,2.34,1.46,3.71,4.1,3.71a6.27,6.27,0,0,0,4.1-1.76l.19,1.47h2.15ZM21.5,81.09a4.72,4.72,0,0,1-3,1.37,1.93,1.93,0,0,1-2-2.15c0-1.37.78-2.35,3.91-2.35H21.5v3.13Zm11.92,3.12H30L25.9,70.83h2.93L31.37,79,32,81.48a47.05,47.05,0,0,0,2.64-10.64h2.93a55.8,55.8,0,0,1-4.1,13.38Zm15.82,0V74.64c0-2.44-1.37-4.1-4.79-4.1a13.38,13.38,0,0,0-5.08,1.08l.39,1.76a12.7,12.7,0,0,1,4-.78c1.85,0,2.73.78,2.73,2.34v1.27h-1c-4.68,0-6.83,1.76-6.83,4.6,0,2.34,1.36,3.71,4,3.71a6.32,6.32,0,0,0,4.2-1.76l.2,1.47h2.15ZM46.5,81.09a4.72,4.72,0,0,1-3,1.37,1.93,1.93,0,0,1-2-2.15c0-1.37.78-2.35,3.91-2.35H46.5v3.13ZM10.66,86.46A6.49,6.49,0,0,1,7.24,89L6,87.44a6.63,6.63,0,0,0,2.35-2.25c.39-.68.48-1.66.48-3.91V66.05h2.93v15c0,3-.29,4.2-1.07,5.37Z"/></svg>