<svg xmlns="http://www.w3.org/2000/svg" viewBox="0 0 35.64 10.86"><defs><style>.cls-1{fill:#ddd;}</style></defs><title>junit_1</title><g id="Calque_2" data-name="Calque 2"><g id="Calque_1-2" data-name="Calque 1"><path class="cls-1" d="M35.64,5.51c-.06.37-.11.74-.18,1.11a5.39,5.39,0,0,1-4.66,4.1,5.66,5.66,0,0,1-2.7-.4.36.36,0,0,1-.27-.4c0-.38,0-.76,0-1.13.38.1.74.21,1.1.27A4.32,4.32,0,0,0,31,8.92a2.26,2.26,0,0,0,1.58-2.08,2.66,2.66,0,0,0-.15-1.19,2,2,0,0,0-1.78-1.26,6.63,6.63,0,0,0-1.26,0c-.19,0-.27,0-.24-.21,0-.42.09-.85.11-1.27,0-.21.11-.23.29-.23h2.23c.29,0,.3,0,.3-.29V1.78c0-.13,0-.21-.19-.21-1.17,0-2.35,0-3.52,0-.13,0-.19.05-.2.18-.05.71-.11,1.41-.17,2.11C28,4.26,28,4.65,28,5a.29.29,0,0,0,.15.29,1,1,0,0,0,.77.16,5.14,5.14,0,0,1,1.24-.06,1.17,1.17,0,0,1,1.23,1.33A1.26,1.26,0,0,1,30.05,8,4.06,4.06,0,0,1,28,7.66L27.8,7.6v2.57l-.23-.11a5.38,5.38,0,1,1,8-5.43c0,.19.06.37.09.56Z"/><path class="cls-1" d="M.65,10.86l-.45-.1A.22.22,0,0,1,0,10.5c0-.13.05-.16.18-.15a3.71,3.71,0,0,0,.88,0A1,1,0,0,0,2,9.44c0-.2,0-.41,0-.62V2c0-.14,0-.28.2-.28s.23.05.23.23c0,2.43,0,4.86,0,7.29a2.38,2.38,0,0,1-.26,1,1.24,1.24,0,0,1-1,.64,2,2,0,0,0-.23.06Z"/><path class="cls-1" d="M9.88,4.36c0,.79,0,1.59,0,2.38A2.32,2.32,0,0,1,7.81,9,4,4,0,0,1,6.3,9a2.29,2.29,0,0,1-1.79-2,6.79,6.79,0,0,1,0-.78c0-1.41,0-2.83,0-4.24,0-.17,0-.25.24-.25s.22.07.22.24v4.3A4.25,4.25,0,0,0,5,7a1.89,1.89,0,0,0,1.53,1.6A3.18,3.18,0,0,0,8,8.6a2,2,0,0,0,1.51-2c0-1.56,0-3.11,0-4.67,0-.19,0-.26.25-.25s.19.12.19.26V4.36Z"/><path class="cls-1" d="M12.4,4.33c0-.06,0-.11.08-.16a1.67,1.67,0,0,1,1.15-.65,4.11,4.11,0,0,1,1,0,1.51,1.51,0,0,1,1.39,1.6c0,1.23,0,2.46,0,3.68,0,.17-.08.2-.22.2s-.21-.05-.21-.21c0-1.11,0-2.23,0-3.34a2.36,2.36,0,0,0,0-.38c-.16-.94-.72-1.31-1.8-1.19A1.61,1.61,0,0,0,12.3,5.61c0,1,0,2.08,0,3.12,0,.15,0,.24-.2.24s-.22-.05-.22-.22v-5c0-.12,0-.22.16-.23s.21.08.22.22l.06.5Z"/><path class="cls-1" d="M20.31,6c0-.57,0-1.14,0-1.7,0-.33,0-.33-.33-.33a1.61,1.61,0,0,1-.31,0c-.06,0-.11-.07-.16-.11s.07-.13.13-.15a2.54,2.54,0,0,1,.47-.14.27.27,0,0,0,.24-.27c.06-.27.11-.55.17-.83,0-.06.09-.11.14-.16a1.42,1.42,0,0,1,.08.18c0,.28,0,.57,0,.85s.05.28.26.27c.38,0,.76,0,1.14,0,.13,0,.21,0,.21.17s-.08.2-.22.2H21c-.17,0-.23.06-.23.23,0,1.11,0,2.22,0,3.33a2.06,2.06,0,0,0,.11.65.74.74,0,0,0,.73.55c.24,0,.47,0,.71,0,.06,0,.17.05.17.07s0,.22-.09.24a1.83,1.83,0,0,1-1.58-.16,1.29,1.29,0,0,1-.48-1.1c0-.59,0-1.18,0-1.76Z"/><path class="cls-1" d="M18.36,6.29V8.74c0,.15,0,.23-.2.23s-.22-.07-.22-.24v-5c0-.15,0-.23.2-.23s.22.08.22.24Z"/><path class="cls-1" d="M17.89,2c0-.3.08-.44.25-.45s.31.18.31.47a.77.77,0,0,1,0,.15c0,.15-.11.29-.3.28s-.23-.16-.24-.32Z"/></g></g></svg>