<svg xmlns="http://www.w3.org/2000/svg" viewBox="0 0 47.58 17.7"><defs><style>.cls-1{fill:#004847;}.cls-2{fill:#db524a;}.cls-3{fill:#259f62;}.cls-4{fill:#ddd;}.cls-5{fill:#383838;}</style></defs><title>junit5</title><g id="Calque_2" data-name="Calque 2"><g id="Calque_1-2" data-name="Calque 1"><rect class="cls-1" width="47.58" height="17.7" rx="1.42"/><path class="cls-2" d="M34,11.08,33.77,11v2.57a1.24,1.24,0,0,1-.23-.11,5.38,5.38,0,0,1-2.62-5.73,5.43,5.43,0,0,1,4.47-4.26,5.31,5.31,0,0,1,2.68.29v1.3C38.05,5,38,5,37.9,5H34.38c-.13,0-.19,0-.2.18,0,.7-.11,1.41-.17,2.11,0,.39,0,.79-.09,1.18a.27.27,0,0,0,.15.28,1,1,0,0,0,.77.17,4.7,4.7,0,0,1,1.24-.06,1.17,1.17,0,0,1,1.23,1.33A1.26,1.26,0,0,1,36,11.46,4.06,4.06,0,0,1,34,11.08Z"/><path class="cls-3" d="M41.62,8.61v.31c-.07.37-.11.75-.19,1.12a5.39,5.39,0,0,1-4.66,4.1,5.66,5.66,0,0,1-2.7-.41.36.36,0,0,1-.27-.39c0-.38,0-.76,0-1.13.39.09.74.21,1.1.27A4.57,4.57,0,0,0,37,12.34a2.26,2.26,0,0,0,1.58-2.09,2.64,2.64,0,0,0-.15-1.18A2.07,2.07,0,0,0,36.66,7.8a7.58,7.58,0,0,0-1.26,0c-.19,0-.27,0-.24-.22q.08-.63.12-1.26c0-.21.1-.23.28-.23h2.23c.24,0,.29,0,.29-.17a.53.53,0,0,0,0-.13v-2A5.34,5.34,0,0,1,41.52,8,5.67,5.67,0,0,0,41.62,8.61Z"/><path class="cls-4" d="M6.62,14.28l-.45-.1a.22.22,0,0,1-.2-.26c0-.13,0-.16.18-.15a3.71,3.71,0,0,0,.88,0,1,1,0,0,0,.9-.94c0-.2,0-.41,0-.62V5.37c0-.14,0-.28.2-.28s.23,0,.23.23c0,2.43,0,4.86,0,7.29a2.38,2.38,0,0,1-.26,1,1.27,1.27,0,0,1-1,.64,1.55,1.55,0,0,0-.23.06Z"/><path class="cls-4" d="M15.85,7.78c0,.79,0,1.59,0,2.38a2.32,2.32,0,0,1-2.06,2.27,4,4,0,0,1-1.51,0,2.29,2.29,0,0,1-1.79-2,6.79,6.79,0,0,1,0-.78c0-1.41,0-2.83,0-4.24,0-.17,0-.25.23-.25s.23.07.23.24c0,1.43,0,2.87,0,4.3a3.55,3.55,0,0,0,.06.8A1.89,1.89,0,0,0,12.48,12a3.18,3.18,0,0,0,1.44,0,2,2,0,0,0,1.51-2c0-1.56,0-3.11,0-4.67,0-.19.05-.26.25-.25s.19.12.19.25V7.78Z"/><path class="cls-4" d="M18.37,7.74a.55.55,0,0,1,.08-.15,1.69,1.69,0,0,1,1.15-.66,4,4,0,0,1,1,0A1.52,1.52,0,0,1,22,8.51c0,1.23,0,2.46,0,3.68,0,.17-.08.2-.22.2s-.21-.05-.21-.21c0-1.11,0-2.23,0-3.35a2.29,2.29,0,0,0,0-.37c-.17-1-.72-1.31-1.8-1.19A1.62,1.62,0,0,0,18.26,9c0,1,0,2.08,0,3.12,0,.15,0,.24-.2.24s-.23-.05-.22-.22v-5c0-.12,0-.22.16-.23s.2.08.22.22,0,.33.06.5Z"/><path class="cls-4" d="M26.27,9.36V7.67c0-.33,0-.33-.33-.33a1.6,1.6,0,0,1-.31,0c-.06,0-.11-.07-.16-.11s.07-.13.12-.15a2.79,2.79,0,0,1,.47-.14.29.29,0,0,0,.25-.27c.05-.27.1-.55.17-.83,0-.06.09-.11.13-.16a.48.48,0,0,1,.08.18,8,8,0,0,1,0,.85c0,.2.06.28.27.27H28.1c.12,0,.21,0,.21.18s-.08.2-.22.2H26.93c-.17,0-.24.06-.23.23,0,1.11,0,2.22,0,3.33a2.41,2.41,0,0,0,.12.65.73.73,0,0,0,.73.55c.24,0,.47,0,.71,0,.06,0,.17.05.17.07s0,.22-.09.24a1.85,1.85,0,0,1-1.59-.16,1.26,1.26,0,0,1-.47-1.1c0-.59,0-1.18,0-1.77Z"/><path class="cls-4" d="M24.33,9.71v2.45c0,.15,0,.23-.2.23s-.22-.08-.22-.24V7.2c0-.15,0-.23.2-.23s.22.08.22.24Z"/><path class="cls-4" d="M23.86,5.42c0-.3.07-.44.25-.45s.31.18.3.47a.76.76,0,0,1,0,.15c0,.15-.11.29-.3.28s-.23-.16-.24-.32A.57.57,0,0,1,23.86,5.42Z"/><path class="cls-5" d="M38.07,5.07a.3.3,0,0,1,0,.1V6h0Z"/></g></g></svg>