<svg xmlns="http://www.w3.org/2000/svg" xmlns:xlink="http://www.w3.org/1999/xlink" viewBox="0 0 511.31 313.09"><defs><style>.cls-1{fill:#fff;}.cls-2,.cls-5{fill:#ddd;}.cls-3{mask:url(#mask);}.cls-4{mask:url(#mask-2);}.cls-5{fill-rule:evenodd;}</style><mask id="mask" x="133.84" y="71.55" width="109.8" height="124.35" maskUnits="userSpaceOnUse"><g id="c"><path id="a" class="cls-1" d="M191.74,72.35a6,6,0,0,0-5.89,0l-48.66,28.08a5.78,5.78,0,0,0-2.89,5.09v56.29a6,6,0,0,0,2.89,5.08L185.85,195a6,6,0,0,0,5.89,0l48.66-28.09a5.76,5.76,0,0,0,2.89-5.08V105.52a6,6,0,0,0-2.89-5.08Z"/></g></mask><mask id="mask-2" x="133.84" y="62.06" width="111.3" height="135.34" maskUnits="userSpaceOnUse"><g id="c-2" data-name="c"><path id="a-2" data-name="a" class="cls-1" d="M191.74,72.35a6,6,0,0,0-5.89,0l-48.66,28.08a5.78,5.78,0,0,0-2.89,5.09v56.29a6,6,0,0,0,2.89,5.08L185.85,195a6,6,0,0,0,5.89,0l48.66-28.09a5.76,5.76,0,0,0,2.89-5.08V105.52a6,6,0,0,0-2.89-5.08Z"/></g></mask></defs><title>nodejs</title><g id="Calque_2" data-name="Calque 2"><g id="Calque_1-2" data-name="Calque 1"><path class="cls-2" d="M252.88,313.09a10.11,10.11,0,0,1-4.85-1.27l-15.38-9.13c-2.31-1.27-1.15-1.73-.46-2a28.06,28.06,0,0,0,6.94-3.12,1.06,1.06,0,0,1,1.15.11l11.79,7a1.48,1.48,0,0,0,1.39,0l46.11-26.69a1.36,1.36,0,0,0,.7-1.28V223.52a1.34,1.34,0,0,0-.7-1.27l-46.11-26.58a1.48,1.48,0,0,0-1.39,0L206,222.25a1.44,1.44,0,0,0-.7,1.27V276.8a1.46,1.46,0,0,0,.7,1.28l12.59,7.28c6.82,3.46,11.1-.58,11.1-4.63V228.15a1.41,1.41,0,0,1,1.39-1.39h5.89a1.41,1.41,0,0,1,1.39,1.39v52.58c0,9.13-5,14.45-13.64,14.45-2.66,0-4.74,0-10.63-2.89l-12.14-6.93a9.77,9.77,0,0,1-4.85-8.44V223.64a9.77,9.77,0,0,1,4.85-8.44L248,188.5a10.34,10.34,0,0,1,9.7,0l46.12,26.7a9.77,9.77,0,0,1,4.85,8.44v53.28a9.77,9.77,0,0,1-4.85,8.44l-46.12,26.69a11.69,11.69,0,0,1-4.85,1Zm14.21-36.63c-20.22,0-24.38-9.25-24.38-17.11A1.4,1.4,0,0,1,244.1,258h6a1.19,1.19,0,0,1,1.27,1.15c.92,6.13,3.58,9.13,15.83,9.13,9.71,0,13.87-2.19,13.87-7.4,0-3-1.16-5.2-16.3-6.7-12.59-1.27-20.45-4-20.45-14.1,0-9.36,7.86-14.91,21-14.91,14.79,0,22.08,5.09,23,16.18a1.78,1.78,0,0,1-.35,1,1.41,1.41,0,0,1-.92.46h-6a1.34,1.34,0,0,1-1.27-1c-1.39-6.35-5-8.43-14.45-8.43-10.63,0-11.9,3.7-11.9,6.47,0,3.35,1.5,4.39,15.83,6.24s20.92,4.51,20.92,14.45C290.09,270.68,281.77,276.46,267.09,276.46Z"/><path class="cls-2" d="M109.8,104.71a5.88,5.88,0,0,0-3-5.08l-49-28.2a6.92,6.92,0,0,0-2.66-.81h-.46a5.41,5.41,0,0,0-2.66.81L3,99.63a5.88,5.88,0,0,0-3,5.08l.12,75.82a2.85,2.85,0,0,0,1.5,2.54,2.62,2.62,0,0,0,2.89,0l29.12-16.64a5.89,5.89,0,0,0,3-5.09V125.86a5.87,5.87,0,0,1,3-5.08L52,113.61a5.55,5.55,0,0,1,3-.81,5,5,0,0,1,2.89.81l12.37,7.17a5.88,5.88,0,0,1,3,5.08v35.48a5.88,5.88,0,0,0,3,5.09l29.12,16.64a2.82,2.82,0,0,0,3,0,2.87,2.87,0,0,0,1.5-2.54ZM345.34.35a3.14,3.14,0,0,0-2.89,0A3,3,0,0,0,341,2.89V78a2.22,2.22,0,0,1-1,1.85,2.19,2.19,0,0,1-2.08,0l-12.25-7a6,6,0,0,0-5.9,0l-49,28.32a5.88,5.88,0,0,0-3,5.08v56.52a5.89,5.89,0,0,0,3,5.09l49,28.31a6,6,0,0,0,5.9,0l49-28.31a5.89,5.89,0,0,0,3-5.09V21.84a5.93,5.93,0,0,0-3-5.2L345.34.35Zm-4.51,143.77a1.32,1.32,0,0,1-.69,1.27l-16.76,9.71a1.72,1.72,0,0,1-1.5,0l-16.76-9.71a1.44,1.44,0,0,1-.69-1.27V124.71a1.32,1.32,0,0,1,.69-1.27l16.76-9.71a1.65,1.65,0,0,1,1.5,0l16.76,9.71a1.44,1.44,0,0,1,.69,1.27v19.41Zm167.59-19.88a5.76,5.76,0,0,0,2.89-5.08V105.41a6,6,0,0,0-2.89-5.09l-48.66-28.2a6,6,0,0,0-5.89,0l-49,28.32a5.87,5.87,0,0,0-3,5.08V162a5.87,5.87,0,0,0,3,5.08l48.66,27.74a5.74,5.74,0,0,0,5.78,0l29.47-16.41a2.91,2.91,0,0,0,0-5.09l-49.24-28.31a3,3,0,0,1-1.5-2.54V124.82a2.87,2.87,0,0,1,1.5-2.54l15.38-8.78a2.8,2.8,0,0,1,3,0l15.37,8.78a3,3,0,0,1,1.51,2.54v13.87a2.85,2.85,0,0,0,1.5,2.54,2.8,2.8,0,0,0,3,0l29.13-17Z"/><path class="cls-2" d="M456.06,121.59a1.06,1.06,0,0,1,1.16,0l9.36,5.43a1.21,1.21,0,0,1,.58,1v10.86a1.21,1.21,0,0,1-.58,1l-9.36,5.43a1,1,0,0,1-1.16,0L446.7,140a1.21,1.21,0,0,1-.58-1V128.06a1.21,1.21,0,0,1,.58-1Z"/><path class="cls-2" d="M191.74,72.35a6,6,0,0,0-5.89,0l-48.66,28.08a5.78,5.78,0,0,0-2.89,5.09v56.29a6,6,0,0,0,2.89,5.08L185.85,195a6,6,0,0,0,5.89,0l48.66-28.09a5.76,5.76,0,0,0,2.89-5.08V105.52a6,6,0,0,0-2.89-5.08Z"/><g class="cls-3"><path class="cls-2" d="M185.73,72.35,137,100.43a6,6,0,0,0-3.12,5.09v56.29a5.55,5.55,0,0,0,1.5,3.7l54.78-93.85a6.6,6.6,0,0,0-4.39.69Zm4.74,123.2a7,7,0,0,0,1.39-.57l48.77-28.09a5.87,5.87,0,0,0,3-5.08V105.52a5.88,5.88,0,0,0-1.73-4l-51.43,94.07Z"/><path class="cls-2" d="M240.51,100.44,191.62,72.35a8.78,8.78,0,0,0-1.5-.58l-54.78,93.85A6,6,0,0,0,137,167l48.89,28.08a5.62,5.62,0,0,0,4.5.58l51.43-94.08a5.8,5.8,0,0,0-1.27-1.15Z"/></g><g class="cls-4"><path class="cls-2" d="M243.63,161.81V105.52a6,6,0,0,0-3.12-5.08L191.62,72.35a5.05,5.05,0,0,0-1.85-.69l53.52,91.42a2.34,2.34,0,0,0,.34-1.27ZM137,100.44a6,6,0,0,0-3.12,5.08v56.29a6.22,6.22,0,0,0,3.12,5.08L185.85,195a5.45,5.45,0,0,0,3.81.69L137.3,100.32l-.34.12Z"/><path class="cls-5" d="M184.23,62.06l-.7.35h.93Z"/><path class="cls-5" d="M240.63,166.89a6.53,6.53,0,0,0,2.89-3.7L189.89,71.66a5.86,5.86,0,0,0-4.16.69l-48.54,28,52.35,95.47a8.18,8.18,0,0,0,2.2-.7l48.89-28.2Z"/><path class="cls-5" d="M245.14,166l-.35-.58v.81l.35-.23Z"/><path class="cls-5" d="M240.63,166.89,191.86,195a7.05,7.05,0,0,1-2.2.69l.92,1.73,54.09-31.32v-.69l-1.38-2.31A5.35,5.35,0,0,1,240.63,166.89Z"/><path class="cls-5" d="M240.63,166.89,191.86,195a7.05,7.05,0,0,1-2.2.69l.92,1.73,54.09-31.32v-.69l-1.38-2.31A5.35,5.35,0,0,1,240.63,166.89Z"/></g></g></g></svg>