<svg xmlns="http://www.w3.org/2000/svg" xmlns:xlink="http://www.w3.org/1999/xlink" viewBox="0 0 175.41 100.26"><defs><style>.cls-1{fill:#fff;}.cls-2{fill:#ddd;}.cls-3{fill:#539e43;}.cls-4{fill:#333;}.cls-5{fill:url(#Dégradé_sans_nom_7);}.cls-6{mask:url(#mask);}.cls-7{fill:none;}.cls-8{fill:url(#Dégradé_sans_nom_2);}.cls-9{mask:url(#mask-2);}.cls-10,.cls-11,.cls-12,.cls-13,.cls-14{fill-rule:evenodd;}.cls-10{fill:url(#Dégradé_sans_nom_6);}.cls-11{fill:url(#Dégradé_sans_nom_6-2);}.cls-12{fill:url(#Dégradé_sans_nom_6-3);}.cls-13{fill:url(#Dégradé_sans_nom_6-4);}.cls-14{fill:url(#Dégradé_sans_nom_7-2);}</style><linearGradient id="Dégradé_sans_nom_7" x1="-1127.48" y1="-117.16" x2="-1127.5" y2="-117.2" gradientTransform="matrix(532.1, 0, 0, -606.29, 600008.95, -70997.49)" gradientUnits="userSpaceOnUse"><stop offset="0" stop-color="#41873f"/><stop offset="0.33" stop-color="#418b3d"/><stop offset="0.64" stop-color="#419637"/><stop offset="0.93" stop-color="#3fa92d"/><stop offset="1" stop-color="#3fae2a"/></linearGradient><mask id="mask" x="54.38" y="26.88" width="30.04" height="34.02" maskUnits="userSpaceOnUse"><g id="c"><path id="a" class="cls-1" d="M70.22,27.09a1.65,1.65,0,0,0-1.61,0L55.3,34.78a1.56,1.56,0,0,0-.79,1.39v15.4A1.64,1.64,0,0,0,55.3,53l13.31,7.68a1.6,1.6,0,0,0,1.61,0L83.53,53a1.57,1.57,0,0,0,.79-1.39V36.17a1.62,1.62,0,0,0-.79-1.39Z"/></g></mask><linearGradient id="Dégradé_sans_nom_2" x1="-1127.58" y1="-117.18" x2="-1127.51" y2="-117.14" gradientTransform="matrix(519.69, 0, 0, -606.04, 586055.75, -70967.68)" gradientUnits="userSpaceOnUse"><stop offset="0.14" stop-color="#41873f"/><stop offset="0.4" stop-color="#54a044"/><stop offset="0.71" stop-color="#66b848"/><stop offset="0.91" stop-color="#6cc04a"/></linearGradient><mask id="mask-2" x="54.38" y="24.28" width="30.45" height="37.02" maskUnits="userSpaceOnUse"><g id="c-2" data-name="c"><path id="a-2" data-name="a" class="cls-1" d="M70.22,27.09a1.65,1.65,0,0,0-1.61,0L55.3,34.78a1.56,1.56,0,0,0-.79,1.39v15.4A1.64,1.64,0,0,0,55.3,53l13.31,7.68a1.6,1.6,0,0,0,1.61,0L83.53,53a1.57,1.57,0,0,0,.79-1.39V36.17a1.62,1.62,0,0,0-.79-1.39Z"/></g></mask><linearGradient id="Dégradé_sans_nom_6" x1="-1559.66" y1="-544.58" x2="-1554.2" y2="-544.58" gradientTransform="matrix(4.51, 0, 0, -1.69, 7092.63, -898.25)" gradientUnits="userSpaceOnUse"><stop offset="0.09" stop-color="#6cc04a"/><stop offset="0.29" stop-color="#66b848"/><stop offset="0.6" stop-color="#54a044"/><stop offset="0.86" stop-color="#41873f"/></linearGradient><linearGradient id="Dégradé_sans_nom_6-2" x1="-1127.63" y1="-117.17" x2="-1127.57" y2="-117.17" gradientTransform="matrix(519.13, 0, 0, -606.53, 585433.57, -71025.41)" xlink:href="#Dégradé_sans_nom_6"/><linearGradient id="Dégradé_sans_nom_6-3" x1="-2449.12" y1="-179.29" x2="-2443.66" y2="-179.29" gradientTransform="matrix(1.69, 0, 0, -3.95, 4224.6, -655.49)" xlink:href="#Dégradé_sans_nom_6"/><linearGradient id="Dégradé_sans_nom_6-4" x1="-1131.71" y1="-117.6" x2="-1131.59" y2="-117.6" gradientTransform="matrix(268.59, 0, 0, -167.59, 304016.5, -19651.99)" xlink:href="#Dégradé_sans_nom_6"/><linearGradient id="Dégradé_sans_nom_7-2" x1="-1131.58" y1="-117.46" x2="-1131.65" y2="-117.69" gradientTransform="matrix(268.59, 0, 0, -167.59, 304016.5, -19651.99)" xlink:href="#Dégradé_sans_nom_7"/></defs><title>nodejs_1</title><g id="Calque_2" data-name="Calque 2"><g id="Calque_1-2" data-name="Calque 1"><rect class="cls-2" width="175.41" height="100.26" rx="1.42"/><g id="c-3" data-name="c"><path id="a-3" data-name="a" class="cls-1" d="M70.22,27.09a1.65,1.65,0,0,0-1.61,0L55.3,34.78a1.56,1.56,0,0,0-.79,1.39v15.4A1.64,1.64,0,0,0,55.3,53l13.31,7.68a1.6,1.6,0,0,0,1.61,0L83.53,53a1.57,1.57,0,0,0,.79-1.39V36.17a1.62,1.62,0,0,0-.79-1.39Z"/></g><path class="cls-3" d="M87,93a2.77,2.77,0,0,1-1.33-.34l-4.21-2.5c-.63-.35-.31-.48-.12-.54a7.62,7.62,0,0,0,1.89-.85.29.29,0,0,1,.32,0l3.23,1.93a.4.4,0,0,0,.37,0l12.62-7.31a.35.35,0,0,0,.19-.34V68.45a.37.37,0,0,0-.19-.35L87.1,60.83a.4.4,0,0,0-.37,0L74.11,68.1a.4.4,0,0,0-.19.35V83a.38.38,0,0,0,.19.34l3.45,2c1.86.94,3-.16,3-1.27V69.72a.39.39,0,0,1,.38-.38h1.61a.38.38,0,0,1,.38.38V84.1c0,2.5-1.36,4-3.73,4a5.44,5.44,0,0,1-2.91-.79L73,85.37a2.67,2.67,0,0,1-1.32-2.31V68.48A2.67,2.67,0,0,1,73,66.17l12.62-7.3a2.83,2.83,0,0,1,2.65,0l12.62,7.3a2.68,2.68,0,0,1,1.33,2.31V83.06a2.68,2.68,0,0,1-1.33,2.31l-12.62,7.3A3.2,3.2,0,0,1,87,93Zm3.89-10c-5.54,0-6.68-2.53-6.68-4.68a.39.39,0,0,1,.38-.38h1.65a.33.33,0,0,1,.35.32c.25,1.67,1,2.5,4.33,2.5,2.65,0,3.79-.6,3.79-2,0-.82-.31-1.42-4.46-1.83-3.44-.35-5.59-1.11-5.59-3.86,0-2.56,2.15-4.08,5.75-4.08,4,0,6,1.39,6.29,4.43a.51.51,0,0,1-.09.28.36.36,0,0,1-.25.13H94.66a.38.38,0,0,1-.35-.28c-.38-1.74-1.36-2.31-4-2.31-2.91,0-3.26,1-3.26,1.77,0,.92.42,1.2,4.34,1.71s5.72,1.23,5.72,3.95S94.85,82.93,90.84,82.93Z"/><path class="cls-4" d="M47.8,36A1.59,1.59,0,0,0,47,34.56l-13.4-7.72a1.93,1.93,0,0,0-.73-.22h-.13a1.51,1.51,0,0,0-.73.22l-13.4,7.72A1.59,1.59,0,0,0,17.77,36l0,20.74a.78.78,0,0,0,.41.69.71.71,0,0,0,.79,0l8-4.55a1.61,1.61,0,0,0,.82-1.39V41.73a1.62,1.62,0,0,1,.82-1.39l3.38-2a1.54,1.54,0,0,1,.83-.22,1.35,1.35,0,0,1,.79.22l3.38,2a1.6,1.6,0,0,1,.82,1.39v9.71a1.61,1.61,0,0,0,.82,1.39l8,4.55a.76.76,0,0,0,.82,0,.77.77,0,0,0,.42-.69L47.8,36ZM112.24,7.4a.85.85,0,0,0-.79,0,.82.82,0,0,0-.41.69V28.64a.57.57,0,0,1-.85.51l-3.36-1.93a1.65,1.65,0,0,0-1.61,0L91.82,35A1.6,1.6,0,0,0,91,36.36V51.82a1.6,1.6,0,0,0,.83,1.39L105.22,61a1.65,1.65,0,0,0,1.61,0l13.41-7.75a1.59,1.59,0,0,0,.82-1.39V13.28a1.63,1.63,0,0,0-.82-1.43l-8-4.45ZM111,46.73a.38.38,0,0,1-.19.35l-4.59,2.65a.43.43,0,0,1-.41,0l-4.58-2.65a.4.4,0,0,1-.19-.35V41.42a.36.36,0,0,1,.19-.35l4.58-2.66a.49.49,0,0,1,.41,0l4.59,2.66a.41.41,0,0,1,.19.35v5.31Zm45.84-5.44a1.56,1.56,0,0,0,.79-1.39V36.14a1.62,1.62,0,0,0-.79-1.39L143.54,27a1.65,1.65,0,0,0-1.61,0l-13.41,7.75a1.61,1.61,0,0,0-.82,1.39V51.63a1.61,1.61,0,0,0,.82,1.39l13.32,7.59a1.59,1.59,0,0,0,1.58,0l8.06-4.49a.79.79,0,0,0,0-1.39L138,47a.83.83,0,0,1-.41-.69V41.45a.8.8,0,0,1,.41-.7l4.21-2.4a.76.76,0,0,1,.82,0l4.2,2.4a.81.81,0,0,1,.41.7v3.79a.8.8,0,0,0,.41.7.78.78,0,0,0,.83,0l8-4.65Z"/><path class="cls-3" d="M142.53,40.56a.31.31,0,0,1,.32,0l2.56,1.49a.34.34,0,0,1,.16.28v3a.34.34,0,0,1-.16.28l-2.56,1.49a.31.31,0,0,1-.32,0L140,45.59a.34.34,0,0,1-.16-.28v-3a.34.34,0,0,1,.16-.28Z"/><path class="cls-5" d="M70.22,27.09a1.65,1.65,0,0,0-1.61,0L55.3,34.78a1.56,1.56,0,0,0-.79,1.39v15.4A1.64,1.64,0,0,0,55.3,53l13.31,7.68a1.6,1.6,0,0,0,1.61,0L83.53,53a1.57,1.57,0,0,0,.79-1.39V36.17a1.62,1.62,0,0,0-.79-1.39Z"/><g class="cls-6"><path class="cls-7" d="M68.58,27.09,55.23,34.78a1.64,1.64,0,0,0-.85,1.39v15.4a1.54,1.54,0,0,0,.41,1l15-25.68a1.83,1.83,0,0,0-1.2.19ZM69.87,60.8a1.8,1.8,0,0,0,.38-.16L83.6,53a1.62,1.62,0,0,0,.82-1.39V36.17a1.61,1.61,0,0,0-.48-1.11L69.87,60.8Z"/><path class="cls-8" d="M83.56,34.78,70.19,27.09a2,2,0,0,0-.41-.15l-15,25.67a2,2,0,0,0,.44.38l13.38,7.68a1.53,1.53,0,0,0,1.23.16L83.91,35.09a1.5,1.5,0,0,0-.35-.31Z"/></g><g class="cls-9"><path class="cls-7" d="M84.42,51.57V36.17a1.63,1.63,0,0,0-.86-1.39L70.19,27.09a1.57,1.57,0,0,0-.51-.19l14.64,25a.57.57,0,0,0,.1-.34ZM55.23,34.78a1.64,1.64,0,0,0-.85,1.39v15.4A1.72,1.72,0,0,0,55.23,53l13.38,7.68a1.49,1.49,0,0,0,1,.19L55.33,34.75l-.1,0Z"/><path class="cls-10" d="M68.17,24.28l-.19.09h.25Z"/><path class="cls-11" d="M83.6,53a1.85,1.85,0,0,0,.79-1L69.71,26.9a1.61,1.61,0,0,0-1.13.19L55.3,34.75,69.62,60.86a2.1,2.1,0,0,0,.6-.19L83.59,53Z"/><path class="cls-12" d="M84.83,52.7l-.1-.15v.22l.1-.07Z"/><path class="cls-13" d="M83.6,53,70.25,60.64a1.83,1.83,0,0,1-.6.19l.25.47,14.8-8.56v-.19l-.38-.64A1.47,1.47,0,0,1,83.6,53Z"/><path class="cls-14" d="M83.6,53,70.25,60.64a1.83,1.83,0,0,1-.6.19l.25.47,14.8-8.56v-.19l-.38-.64A1.47,1.47,0,0,1,83.6,53Z"/></g></g></g></svg>