<svg xmlns="http://www.w3.org/2000/svg" viewBox="0 0 27.88 17.07"><defs><style>.cls-1,.cls-2{fill:#ddd;}.cls-2{fill-rule:evenodd;}</style></defs><title>nodejs</title><g id="Calque_2" data-name="Calque 2"><g id="Calque_1-2" data-name="Calque 1"><g id="mask-2"><g id="c-2"><path id="a-2" class="cls-1" d="M10.46,4a.33.33,0,0,0-.33,0L7.48,5.48a.3.3,0,0,0-.16.27V8.82a.32.32,0,0,0,.16.28l2.65,1.53a.32.32,0,0,0,.33,0L13.11,9.1a.32.32,0,0,0,.16-.28V5.75a.32.32,0,0,0-.16-.27Z"/></g></g><g id="mask"><g id="c"><path id="a" class="cls-1" d="M10.46,4a.33.33,0,0,0-.33,0L7.48,5.48a.3.3,0,0,0-.16.27V8.82a.32.32,0,0,0,.16.28l2.65,1.53a.32.32,0,0,0,.33,0L13.11,9.1a.32.32,0,0,0,.16-.28V5.75a.32.32,0,0,0-.16-.27Z"/></g></g><g id="Calque_1-2-2" data-name="Calque 1-2"><path class="cls-1" d="M13.79,17.07a.54.54,0,0,1-.27-.07l-.83-.49c-.13-.07-.07-.1,0-.11a1.84,1.84,0,0,0,.38-.17.06.06,0,0,1,.06,0l.65.38a0,0,0,0,0,.07,0l2.52-1.45s0,0,0-.07v-2.9a.06.06,0,0,0,0-.07l-2.52-1.45h-.07l-2.52,1.45a.08.08,0,0,0,0,.07v2.9a.08.08,0,0,0,0,.07l.69.4c.37.19.6,0,.6-.25V12.44a.08.08,0,0,1,.08-.07h.32a.08.08,0,0,1,.08.07v2.87a.71.71,0,0,1-.75.79,1.09,1.09,0,0,1-.58-.16L11,15.56a.53.53,0,0,1-.26-.46V12.19a.55.55,0,0,1,.26-.46l2.51-1.45a.55.55,0,0,1,.53,0l2.52,1.45a.55.55,0,0,1,.26.46V15.1a.53.53,0,0,1-.26.46L14.05,17a.75.75,0,0,1-.26.05Zm.77-2c-1.1,0-1.33-.51-1.33-.94a.08.08,0,0,1,.08-.07h.33a.07.07,0,0,1,.07.06h0c0,.34.19.5.86.5s.76-.12.76-.4-.07-.29-.89-.37-1.12-.22-1.12-.77.43-.81,1.15-.81,1.2.28,1.25.88a.14.14,0,0,1,0,.06l0,0h-.32s-.07,0-.07-.05c-.08-.35-.28-.46-.79-.46s-.65.2-.65.35.08.24.86.34,1.14.25,1.14.79S15.36,15.08,14.56,15.08Z"/><path class="cls-1" d="M6,5.71a.33.33,0,0,0-.17-.28L3.15,3.9a.34.34,0,0,0-.14,0H3a.24.24,0,0,0-.14,0L.16,5.43A.32.32,0,0,0,0,5.71V9.84A.15.15,0,0,0,.09,10a.15.15,0,0,0,.16,0l1.58-.9A.34.34,0,0,0,2,8.8V6.86a.3.3,0,0,1,.16-.27l.68-.39a.28.28,0,0,1,.16,0,.25.25,0,0,1,.16,0l.67.39A.3.3,0,0,1,4,6.86V8.8a.37.37,0,0,0,.17.28l1.59.9a.15.15,0,0,0,.16,0A.15.15,0,0,0,6,9.84ZM18.83,0a.15.15,0,0,0-.16,0,.16.16,0,0,0-.08.14V4.25a.12.12,0,0,1-.05.1.11.11,0,0,1-.11,0L17.76,4a.36.36,0,0,0-.32,0L14.76,5.52a.3.3,0,0,0-.16.27V8.88a.3.3,0,0,0,.16.27l2.68,1.55a.36.36,0,0,0,.32,0l2.67-1.55a.3.3,0,0,0,.16-.27V1.19a.32.32,0,0,0-.16-.28Zm-.24,7.84a.1.1,0,0,1,0,.07l-.92.53h-.08l-.91-.53a.08.08,0,0,1,0-.07V6.8a.07.07,0,0,1,0-.07l.91-.53h.08l.92.53a.1.1,0,0,1,0,.07V7.86Zm9.13-1.09a.3.3,0,0,0,.16-.27V5.75a.32.32,0,0,0-.16-.28L25.07,3.93a.36.36,0,0,0-.32,0L22.08,5.48a.31.31,0,0,0-.17.27V8.83a.33.33,0,0,0,.17.28l2.65,1.51a.31.31,0,0,0,.32,0l1.6-.89a.15.15,0,0,0,.06-.22l-.06-.06L24,7.91a.16.16,0,0,1-.08-.14v-1A.16.16,0,0,1,24,6.67l.84-.48a.15.15,0,0,1,.16,0l.84.48a.16.16,0,0,1,.08.14v.75A.16.16,0,0,0,26,7.7a.17.17,0,0,0,.17,0l1.58-.93Z"/><path class="cls-1" d="M24.87,6.63h.06l.51.3a.05.05,0,0,1,0,.05v.59a.06.06,0,0,1,0,.06l-.51.29a0,0,0,0,1-.06,0l-.51-.29a.05.05,0,0,1,0,0V7a.05.05,0,0,1,0-.05Z"/><path class="cls-1" d="M10.46,4a.33.33,0,0,0-.33,0L7.48,5.48a.3.3,0,0,0-.16.27V8.82a.32.32,0,0,0,.16.28l2.65,1.53a.32.32,0,0,0,.33,0L13.11,9.1a.32.32,0,0,0,.16-.28V5.75a.32.32,0,0,0-.16-.27Z"/><path class="cls-1" d="M10.13,4,7.47,5.48a.31.31,0,0,0-.17.27V8.82A.32.32,0,0,0,7.38,9l3-5.12a.34.34,0,0,0-.24,0Zm.26,6.71a.11.11,0,0,0,.07,0L13.12,9.1a.32.32,0,0,0,.16-.28V5.75a.27.27,0,0,0-.09-.21l-2.8,5.13Z"/><path class="cls-1" d="M13.11,5.48,10.45,4l-.08,0L7.38,9l.09.08,2.67,1.53a.33.33,0,0,0,.24,0l2.81-5.13a.19.19,0,0,0-.07-.06Z"/><path class="cls-1" d="M13.28,8.82V5.75a.29.29,0,0,0-.17-.27L10.45,4a.21.21,0,0,0-.1,0l2.92,5a.08.08,0,0,0,0-.07ZM7.47,5.48a.31.31,0,0,0-.17.27V8.82a.35.35,0,0,0,.17.28l2.66,1.53a.32.32,0,0,0,.21,0L7.49,5.47Z"/><path class="cls-2" d="M10.05,3.38l0,0h.05Z"/><path class="cls-2" d="M13.12,9.1a.35.35,0,0,0,.16-.2l-2.93-5a.29.29,0,0,0-.22,0L7.48,5.47l2.86,5.21.12,0L13.12,9.1Z"/><path class="cls-2" d="M13.37,9.05l0,0v0Z"/><path class="cls-2" d="M13.12,9.1l-2.66,1.53-.12,0,.05.1,2.95-1.71V9l-.07-.13A.3.3,0,0,1,13.12,9.1Z"/><path class="cls-2" d="M13.12,9.1l-2.66,1.53-.12,0,.05.1,2.95-1.71V9l-.07-.13A.3.3,0,0,1,13.12,9.1Z"/></g></g></g></svg>