<svg xmlns="http://www.w3.org/2000/svg" width="184.827" height="184.827" viewBox="0 0 184.827 184.827">
  <path id="react-js-brands" d="M173.827,183.827H10a10.011,10.011,0,0,1-10-10V10A10.012,10.012,0,0,1,10,0H173.827a10.012,10.012,0,0,1,10,10V173.827A10.011,10.011,0,0,1,173.827,183.827ZM92.129,132.4h0c1.115,1.089,2.271,2.111,3.255,2.967,7.618,6.55,15.076,10.157,21,10.157a11.056,11.056,0,0,0,5.613-1.4c3.146-1.818,5.347-5.5,6.366-10.651,1.005-5.08.823-11.37-.526-18.189-.215-1.049-.457-2.136-.718-3.231.759-.214,1.505-.455,2.228-.688l.022-.007a58.239,58.239,0,0,0,16.212-7.973c4.3-3.2,6.88-6.677,7.469-10.057V90.313c-.569-3.215-3.009-6.531-7.059-9.588a55.917,55.917,0,0,0-15.259-7.678c-1.286-.428-2.591-.839-3.877-1.22.207-.847.386-1.67.6-2.657,1.458-7.062,1.731-13.524.79-18.686-.955-5.242-3.14-8.985-6.319-10.824a10.918,10.918,0,0,0-5.508-1.361c-6.014,0-13.628,3.747-21.441,10.552-.956.822-1.962,1.748-2.992,2.752-.654-.629-1.322-1.249-1.987-1.843-8.12-7.21-16.382-11.345-22.666-11.345a11.113,11.113,0,0,0-5.67,1.413c-3.042,1.765-5.149,5.316-6.092,10.268-.924,4.852-.721,10.96.586,17.663.282,1.433.572,2.74.886,4-1.525.429-3.022.9-4.451,1.412a53.886,53.886,0,0,0-14.926,7.6c-3.946,3.028-6.328,6.322-6.888,9.525v3.036c1.157,6.651,9.937,13.542,22.915,17.985,1.059.353,2.154.718,3.255,1.03-.346,1.385-.66,2.793-.958,4.307-1.246,6.588-1.4,12.584-.434,17.34.98,4.845,3.109,8.333,6.154,10.088a11.347,11.347,0,0,0,5.751,1.416c6.259,0,14.335-3.927,22.155-10.774.93-.823,1.752-1.582,2.512-2.32Zm24.227,8a18.594,18.594,0,0,1-7.849-2.252,48.886,48.886,0,0,1-9.748-6.654c-1.029-.882-2.051-1.833-3.039-2.752a118.747,118.747,0,0,0,10.1-12.829,118.377,118.377,0,0,0,16.323-2.513c.23.943.447,1.925.646,2.92a43.443,43.443,0,0,1,.6,15.868,10.643,10.643,0,0,1-3.948,7.492A6.1,6.1,0,0,1,116.355,140.4Zm-48.206-.086h0a10.451,10.451,0,0,1-3.855-.732,6.458,6.458,0,0,1-2.413-2.77,16.291,16.291,0,0,1-1.437-4.8,43.573,43.573,0,0,1,.619-14.447c.3-1.547.585-2.817.886-4a120.4,120.4,0,0,0,16.25,2.345,126.5,126.5,0,0,0,10.339,12.781c-.881.852-1.611,1.529-2.3,2.129a43.631,43.631,0,0,1-13.5,8.449A10.729,10.729,0,0,1,68.15,140.314Zm23.955-15.307h0a113.058,113.058,0,0,1-7.251-8.687c2.267.1,4.643.144,7.061.144,2.644,0,5.024-.055,7.276-.167a103.628,103.628,0,0,1-7.083,8.71Zm-.192-13.69c-3.608,0-7.28-.113-10.913-.335-2.076-3.03-4.057-6.17-5.888-9.334-1.784-3.081-3.467-6.259-5.146-9.717,1.487-3.11,3.163-6.288,5.122-9.717,1.688-2.954,3.6-6,5.84-9.31,3.677-.27,7.373-.407,10.985-.407,3.639,0,7.335.137,10.985.407,2.023,3,3.98,6.115,5.816,9.262,1.751,3,3.5,6.253,5.194,9.67-1.6,3.287-3.336,6.572-5.17,9.765-1.69,2.958-3.585,6.011-5.792,9.334C99.5,111.189,95.789,111.317,91.913,111.317Zm0-30.371a10.962,10.962,0,1,0,10.961,10.961A10.974,10.974,0,0,0,91.913,80.946ZM74.442,110.432h0a108.915,108.915,0,0,1-11.1-1.794,112.049,112.049,0,0,1,3.9-10.651c1.266,2.421,2.352,4.406,3.422,6.247,1.1,1.871,2.405,4.07,3.781,6.2Zm35.039-.12v0c1.354-2.105,2.634-4.277,3.709-6.125,1.1-1.892,2.206-3.923,3.494-6.391a110.28,110.28,0,0,1,4.046,10.6,105.306,105.306,0,0,1-11.247,1.914Zm-51.146-2.944h0c-.975-.279-1.946-.584-2.966-.933-3.51-1.1-10.136-3.541-15.079-7.467a10.784,10.784,0,0,1-4.5-7.156c0-2.144,1.779-4.6,5.146-7.108a50.7,50.7,0,0,1,13.331-6.677c1.215-.426,2.53-.845,4.141-1.317A127.533,127.533,0,0,0,64.27,91.931a131.159,131.159,0,0,0-5.935,15.436Zm67.373-.287h0a122.091,122.091,0,0,0-6.1-15.269,121.5,121.5,0,0,0,5.863-15.054c1.091.315,2.232.673,3.59,1.125,11.175,3.837,18.979,9.545,18.979,13.882,0,4.7-8.346,10.744-20.3,14.7l-.038.012c-.646.208-1.315.422-2,.61Zm-9.071-21.2v0c-.925-1.731-2.155-4.007-3.469-6.268-1.162-2.016-2.394-4.045-3.661-6.032a110.221,110.221,0,0,1,10.985,1.915,105.361,105.361,0,0,1-3.853,10.385Zm-49.4,0v0c-1.449-3.427-2.738-6.937-3.829-10.433,3.406-.757,7.077-1.385,10.913-1.868-1.387,2.173-2.593,4.162-3.685,6.079-1.292,2.241-2.4,4.276-3.4,6.221Zm54.617-15.341h0A122.9,122.9,0,0,0,105.747,68a121.486,121.486,0,0,0-10.2-12.709c1.017-.965,1.907-1.778,2.8-2.56,6.688-5.824,13.429-9.3,18.032-9.3a5.879,5.879,0,0,1,2.958.686c2,1.149,3.422,4.083,4,8.263a48.042,48.042,0,0,1-.936,15.767c-.166.8-.332,1.593-.55,2.392ZM62.02,70.487h0c-.316-1.242-.581-2.5-.837-3.709A45.776,45.776,0,0,1,60.429,52a16.811,16.811,0,0,1,1.387-4.916A6.279,6.279,0,0,1,64.2,44.28a6.135,6.135,0,0,1,3.117-.73,19.885,19.885,0,0,1,8.571,2.56,53.438,53.438,0,0,1,10.666,7.5c.41.361.812.736,1.238,1.134q.289.27.581.541A122.047,122.047,0,0,0,78.1,68a126.811,126.811,0,0,0-16.083,2.489ZM84.8,67.519v0c2.255-2.965,4.663-5.847,7.157-8.566a105.615,105.615,0,0,1,7.084,8.566c-2.365-.105-4.76-.159-7.12-.159s-4.754.054-7.12.161Z" transform="translate(0.5 0.5)" fill="#ddd" stroke="#707070" stroke-width="1"/>
</svg>
