<svg xmlns="http://www.w3.org/2000/svg" width="198.235" height="148.69" viewBox="0 0 198.235 148.69">
  <path id="sass-brands" d="M93.5,128.416C93.4,128.6,93.31,128.751,93.5,128.416Zm77.167-26.948A40.626,40.626,0,0,0,152.7,105.65c-1.828-3.686-3.717-6.907-4.027-9.323a24.887,24.887,0,0,1-.341-7.837c.434-3.345,2.385-8.084,2.354-8.425s-.434-2.044-4.429-2.075-7.434.774-7.833,1.827a38.046,38.046,0,0,0-1.642,5.916c-.712,3.624-7.988,16.571-12.108,23.324-1.363-2.633-2.509-4.956-2.757-6.814a24.887,24.887,0,0,1-.341-7.837c.434-3.345,2.385-8.084,2.354-8.425s-.434-2.044-4.426-2.075-7.434.774-7.837,1.827-.836,3.531-1.642,5.916-10.5,23.943-13.034,29.55c-1.3,2.85-2.416,5.142-3.221,6.691-.124.248-.217.4-.279.527.093-.155.155-.31.155-.248-.681,1.332-1.084,2.075-1.084,2.075v.031c-.527.991-1.115,1.889-1.394,1.889-.186,0-.589-2.6.093-6.164,1.456-7.5,4.894-19.142,4.863-19.545-.031-.217.65-2.23-2.261-3.314a3.646,3.646,0,0,0-4.089.681c-.248,0-.434.619-.434.619s3.128-13.133-6.006-13.133c-5.7,0-13.629,6.257-17.525,11.925-2.447,1.332-7.744,4.213-13.319,7.279-2.137,1.177-4.336,2.385-6.412,3.531-.155-.155-.279-.31-.434-.465-11.086-11.832-31.554-20.2-30.687-36.085.31-5.792,2.323-21,39.359-39.462,30.355-15.116,54.624-10.965,58.8-1.735,6.009,13.164-12.975,37.665-44.5,41.2-12.015,1.332-18.331-3.314-19.91-5.049-1.642-1.827-1.889-1.92-2.509-1.58-1.022.558-.372,2.168,0,3.128.929,2.447,4.8,6.783,11.4,8.952,5.792,1.889,19.88,2.943,36.912-3.655,19.136-7.372,34.032-27.908,29.664-45.1-4.448-17.47-33.415-23.2-60.806-13.474C47.047,26.51,29.4,35.616,16.7,47.479,1.619,61.6-.794,73.9.2,79.042c3.528,18.244,28.673,30.138,38.737,38.935-.5.279-.96.527-1.394.774C32.495,121.261,13.325,131.3,8.527,141.89c-5.421,12.018.9,20.629,5.046,21.806,12.944,3.593,26.2-2.881,33.319-13.5s6.257-24.5,2.974-30.82c-.031-.093-.093-.155-.124-.248,1.3-.774,2.633-1.549,3.965-2.323,2.568-1.518,5.077-2.912,7.276-4.12a48.111,48.111,0,0,0-2.6,13.2c-.558,6.814,2.261,15.642,5.916,19.111a6.5,6.5,0,0,0,4.767,1.549c4.274,0,6.195-3.531,8.329-7.744,2.633-5.142,4.956-11.12,4.956-11.12s-2.912,16.169,5.049,16.169c2.909,0,5.82-3.748,7.124-5.668v.031s.062-.124.217-.372c.31-.465.465-.743.465-.743V137c1.177-2.013,3.748-6.629,7.617-14.248,5.018-9.85,9.816-22.147,9.816-22.147a62.335,62.335,0,0,0,1.92,7.991c.867,2.943,2.695,6.164,4.151,9.292-1.177,1.611-1.889,2.54-1.889,2.54a.1.1,0,0,0,.031.062c-.929,1.239-1.982,2.571-3.066,3.872-3.962,4.708-8.673,10.1-9.292,11.646-.743,1.827-.558,3.19.867,4.244,1.053.805,2.912.929,4.86.774a21.479,21.479,0,0,0,7.279-1.673,25.462,25.462,0,0,0,6.254-3.283,13.983,13.983,0,0,0,6.009-12.328A25.652,25.652,0,0,0,127.5,115c.341-.5.712-1.022,1.053-1.549a164.664,164.664,0,0,0,10.869-18.777,62.333,62.333,0,0,0,1.92,7.991,54.632,54.632,0,0,0,3.528,7.96c-5.758,4.677-9.32,10.1-10.559,13.66-2.292,6.6-.5,9.571,2.881,10.253,1.518.31,3.686-.4,5.3-1.084a24.612,24.612,0,0,0,6.687-3.438c3.872-2.85,7.617-6.845,7.369-12.266a23.044,23.044,0,0,0-1.673-7.248c4.863-2.044,11.179-3.159,19.232-2.23,17.247,2.013,20.623,12.793,19.972,17.284s-4.274,7-5.483,7.744-1.58,1.022-1.487,1.58c.155.805.712.774,1.735.589,1.425-.248,9.041-3.655,9.382-11.987.5-10.531-9.63-22.116-27.567-22.023ZM37.726,146.288c-5.7,6.226-13.688,8.58-17.123,6.6-3.686-2.143-2.23-11.306,4.8-17.941a91.777,91.777,0,0,1,13.44-10.036c.836-.5,2.044-1.239,3.531-2.137.248-.155.372-.217.372-.217.279-.186.589-.341.9-.527a24.723,24.723,0,0,1-5.916,24.253Zm41.617-28.311c-1.982,4.863-6.161,17.253-8.7,16.6-2.168-.558-3.5-10-.434-19.3a42.72,42.72,0,0,1,6.783-12.421c3.125-3.5,6.564-4.615,7.369-3.221,1.084,1.827-3.779,15.3-5.018,18.337Zm34.382,16.417c-.836.434-1.611.712-1.982.5-.279-.155.341-.743.341-.743s4.305-4.615,6.009-6.722c.991-1.239,2.137-2.695,3.373-4.305,0,.155.031.31.031.5-.04,5.544-5.365,9.292-7.781,10.779Zm26.508-6.04c-.619-.434-.527-1.889,1.549-6.412a24.074,24.074,0,0,1,5.885-7.589,11.207,11.207,0,0,1,.589,3.345c-.031,6.969-5.018,9.571-8.019,10.655Z" transform="translate(-0.003 -16.004)" fill="#ddd"/>
</svg>
