<svg xmlns="http://www.w3.org/2000/svg" viewBox="0 0 17.01 17.01"><defs><style>.cls-1{fill:#ddd;}</style></defs><title>springboot</title><g id="Calque_2" data-name="Calque 2"><g id="Calque_1-2" data-name="Calque 1"><path class="cls-1" d="M15.47.89a8.23,8.23,0,0,1-.91,1.61A8.54,8.54,0,1,0,2.65,14.73L3,15A8.52,8.52,0,0,0,17,9.08c.23-2.17-.41-4.92-1.49-8.19ZM3.86,14.77a.73.73,0,1,1-.57-1.19.71.71,0,0,1,.46.17.73.73,0,0,1,.11,1Zm11.57-2.55c-2.1,2.8-6.6,1.86-9.48,2a10.13,10.13,0,0,0-1,.12l.44-.18a33.57,33.57,0,0,0,4.21-1.47,9.92,9.92,0,0,0,5.08-6.44,10.4,10.4,0,0,1-6,5.7A41.77,41.77,0,0,1,4,13.15l-.12-.06c-2-1-2.12-5.45,1.61-6.88,1.63-.63,3.2-.28,5-.71a7.75,7.75,0,0,0,5-3.7c1,3,2.18,7.56,0,10.42Z"/></g></g></svg>