<svg xmlns="http://www.w3.org/2000/svg" viewBox="0 0 22.68 11.87"><defs><style>.cls-1{fill:#ddd;}</style></defs><title>sql</title><g id="Calque_2" data-name="Calque 2"><g id="Calque_1-2" data-name="Calque 1"><path class="cls-1" d="M5.48,0a1.75,1.75,0,0,0,.46.05A7.84,7.84,0,0,1,8.37.67a2.85,2.85,0,0,1,.85.58,1.42,1.42,0,0,1,.4,1c0,2.41,0,4.83,0,7.24a1.6,1.6,0,0,1-.73,1.4,4.87,4.87,0,0,1-1.71.72,10.69,10.69,0,0,1-3.43.21,8,8,0,0,1-2.32-.53,2.71,2.71,0,0,1-1.17-.83A1.24,1.24,0,0,1,0,9.67V2.2A1.4,1.4,0,0,1,.6,1.07,4,4,0,0,1,2,.38,8.77,8.77,0,0,1,4,0S4,0,4.06,0Zm-.7,3.45a9.24,9.24,0,0,0,2.47-.31,3.36,3.36,0,0,0,1.24-.58c.35-.29.35-.52,0-.81a3.55,3.55,0,0,0-1.31-.6,9.92,9.92,0,0,0-3-.27,8.91,8.91,0,0,0-2,.33,3.09,3.09,0,0,0-1.18.61c-.25.24-.25.42,0,.66A2.32,2.32,0,0,0,1.86,3,8.36,8.36,0,0,0,4.78,3.45Zm-3.91,0c0,.37,0,.72,0,1.06a.72.72,0,0,0,.37.71,1.49,1.49,0,0,0,.3.18A6,6,0,0,0,3.65,6,10.76,10.76,0,0,0,5.53,6a8.1,8.1,0,0,0,2-.38,2.84,2.84,0,0,0,1-.5.57.57,0,0,0,.25-.42c0-.38,0-.76,0-1.14,0-.12,0-.11-.11-.06a5.56,5.56,0,0,1-1.52.56A10.33,10.33,0,0,1,4.3,4.3,9.71,9.71,0,0,1,2.15,4,5.29,5.29,0,0,1,.87,3.44ZM.87,6c0,.36,0,.71,0,1.05a.72.72,0,0,0,.38.72A2.77,2.77,0,0,0,1.61,8a6,6,0,0,0,1.6.46,9.82,9.82,0,0,0,2.54.08,7.44,7.44,0,0,0,2-.42,3.13,3.13,0,0,0,.76-.42.66.66,0,0,0,.27-.57c0-.33,0-.67,0-1,0,0,0-.07,0-.1A9.41,9.41,0,0,1,.87,6ZM8.76,8.59a8,8,0,0,1-4,.86A8,8,0,0,1,.87,8.6c0,.32,0,.63,0,.94a.65.65,0,0,0,.3.6,3.44,3.44,0,0,0,1.18.55A9.54,9.54,0,0,0,5.4,11a8.37,8.37,0,0,0,2-.33,3.2,3.2,0,0,0,1.15-.58.5.5,0,0,0,.22-.37C8.76,9.35,8.76,9,8.76,8.59Z"/><path class="cls-1" d="M22.68,8.44c-.48,0-.95,0-1.43,0a1,1,0,0,1-.79-.78,1.24,1.24,0,0,1,0-.33q0-1.77,0-3.54c0-.12,0-.16.15-.16s.49,0,.73,0,.14,0,.14.14V6.72a.79.79,0,0,0,.07.37A.52.52,0,0,0,22,7.4l.69,0Z"/><path class="cls-1" d="M16.86,8.45a2.56,2.56,0,0,1-1.81-2.28,2.48,2.48,0,0,1,2.11-2.58,2.34,2.34,0,0,1,2.47,1.18,2.63,2.63,0,0,1-1,3.59,1.79,1.79,0,0,1-.44.16c-.1,0-.14.07-.13.17s0,.24,0,.36,0,.11-.1.11H17.3c-.1,0-.13,0-.13-.13,0-.58,0-1.15,0-1.73,0-.12,0-.25,0-.37s0-.1.1-.1h.66c.08,0,.11,0,.1.1v.4c0,.15,0,.16.16.1a.94.94,0,0,0,.46-.4,1.7,1.7,0,0,0-.31-2.23,1.24,1.24,0,0,0-1.65,0,1.61,1.61,0,0,0-.45,1.93,1.45,1.45,0,0,0,.52.55.19.19,0,0,1,.1.19C16.85,7.81,16.86,8.12,16.86,8.45Z"/><path class="cls-1" d="M13.58,3.64h.74c.08,0,.12,0,.12.12s0,.47,0,.7,0,.11-.11.1l-.61,0a2.81,2.81,0,0,0-.76,0l-.06,0c-.28.09-.33.25-.12.46s.59.48.88.72a5,5,0,0,1,.66.64,1.27,1.27,0,0,1,.27,1.06,1.24,1.24,0,0,1-1,1,1.48,1.48,0,0,1-.47.06H11.82c-.09,0-.13,0-.12-.12V7.62c0-.11,0-.13.13-.12.33,0,.66.06,1,0a2.33,2.33,0,0,0,.53-.06c.3-.07.34-.2.14-.44a3.32,3.32,0,0,0-.38-.37,6.7,6.7,0,0,1-1-1,2,2,0,0,1-.43-1,.81.81,0,0,1,.44-.85,1.72,1.72,0,0,1,.83-.2C13.14,3.63,13.36,3.64,13.58,3.64Z"/></g></g></svg>