<svg xmlns="http://www.w3.org/2000/svg" viewBox="0 0 14.17 13.7"><defs><style>.cls-1{fill:#ddd;}</style></defs><title>xd_1</title><g id="Calque_2" data-name="Calque 2"><g id="Calque_1-2" data-name="Calque 1"><path class="cls-1" d="M11.68,0H2.49A2.46,2.46,0,0,0,0,2.49v8.72a2.55,2.55,0,0,0,.08.61A2.45,2.45,0,0,0,2.47,13.7h9.21a2.47,2.47,0,0,0,2.49-2.49V2.49A2.46,2.46,0,0,0,11.68,0ZM7.28,10.15h-1A.26.26,0,0,1,6,10L4.84,7.84l-.11-.19a1,1,0,0,0-.08.14c-.39.73-.78,1.46-1.16,2.19a.3.3,0,0,1-.3.18H2.11L2.22,10l1.7-2.87a.21.21,0,0,0,0-.26C3.39,5.88,2.85,4.94,2.32,4l-.12-.2c.44,0,.84,0,1.24,0,.06,0,.13.09.17.15L4.72,6.08l.09.18a1.94,1.94,0,0,1,.1-.17L6,4a.26.26,0,0,1,.27-.17h1c0,.07-.06.13-.09.18-.53.92-1.07,1.84-1.61,2.76a.24.24,0,0,0,0,.28l1.74,3,.1.17ZM12,9.9a4,4,0,0,1-2.56.27A1.92,1.92,0,0,1,8,8.43,2.86,2.86,0,0,1,8.09,7a2.37,2.37,0,0,1,2.49-1.43h.17V5.27c0-.52,0-1,0-1.57,0-.12,0-.16.15-.15.29,0,.57,0,.86,0s.16.06.16.19c0,1.74,0,3.48,0,5.22a5.33,5.33,0,0,0,.1.79C12,9.82,12,9.87,12,9.9Z"/><path class="cls-1" d="M10.56,6.4a1.17,1.17,0,0,0-1.2.41A1.76,1.76,0,0,0,9,8.34,1.32,1.32,0,0,0,10.6,9.43c.11,0,.16-.07.16-.19,0-.44,0-.87,0-1.31s0-.86,0-1.29A.21.21,0,0,0,10.56,6.4Z"/></g></g></svg>